<?xml version="1.0" encoding="utf-8"?>
<!-- Generator: Adobe Illustrator 19.1.1, SVG Export Plug-In . SVG Version: 6.00 Build 0)  -->
<svg version="1.1" id="Calque_1" xmlns="http://www.w3.org/2000/svg" xmlns:xlink="http://www.w3.org/1999/xlink" x="0px" y="0px"
	 viewBox="0 0 172.4 83.7" style="enable-background:new 0 0 172.4 83.7;" xml:space="preserve">
<style type="text/css">
	.st0{fill:#FFFFFF;stroke:#000000;stroke-miterlimit:10;}
</style>
<g>
	<path class="st0" d="M46.5,7.7v44.1h8.4v11.5h-8.4v14.4H32.4V63.4H1.9V51.3c2.7-3,5.5-6.3,8.4-9.9c2.9-3.6,5.7-7.3,8.4-11.1
		c2.7-3.8,5.2-7.6,7.5-11.5c2.3-3.9,4.3-7.5,5.9-11.1H46.5z M15.7,51.8h16.7V27.4c-1.1,2.1-2.4,4.3-3.7,6.4
		c-1.3,2.2-2.7,4.3-4.2,6.4s-2.9,4.1-4.4,6.1C18.6,48.3,17.1,50.1,15.7,51.8z"/>
	<path class="st0" d="M85.9,78.9c-16.7,0-25-11.7-25-35.1c0-12.1,2.3-21.4,6.8-27.8c4.5-6.4,11-9.5,19.6-9.5
		c16.3,0,24.4,11.9,24.4,35.7c0,11.8-2.2,20.9-6.7,27.2C100.6,75.8,94.2,78.9,85.9,78.9z M86.6,18.3c-6.7,0-10,8.4-10,25.1
		c0,15.8,3.3,23.7,9.8,23.7c6.4,0,9.6-8.1,9.6-24.4C95.9,26.4,92.8,18.3,86.6,18.3z"/>
	<path class="st0" d="M161.5,7.7v44.1h8.4v11.5h-8.4v14.4h-14.1V63.4h-30.5V51.3c2.7-3,5.5-6.3,8.4-9.9c2.9-3.6,5.7-7.3,8.4-11.1
		c2.7-3.8,5.2-7.6,7.5-11.5c2.3-3.9,4.3-7.5,5.9-11.1H161.5z M130.8,51.8h16.7V27.4c-1.1,2.1-2.4,4.3-3.7,6.4
		c-1.3,2.2-2.7,4.3-4.2,6.4s-2.9,4.1-4.4,6.1C133.6,48.3,132.2,50.1,130.8,51.8z"/>
</g>
</svg>
