<?xml version="1.0" encoding="utf-8"?>
<!-- Generator: Adobe Illustrator 19.1.1, SVG Export Plug-In . SVG Version: 6.00 Build 0)  -->
<svg version="1.1" id="Capa_1" xmlns="http://www.w3.org/2000/svg" xmlns:xlink="http://www.w3.org/1999/xlink" x="0px" y="0px"
	 viewBox="-418 220.2 121.3 121.8" style="enable-background:new -418 220.2 121.3 121.8;" xml:space="preserve">
<style type="text/css">
	.st0{fill:#FFFFFF;stroke:#2C317D;stroke-miterlimit:10;}
	.st1{fill:#2C317D;}
</style>
<circle class="st0" cx="-357.4" cy="281.8" r="59.3"/>
<path class="st1" d="M-391.4,267l8,21.7h-4.4c-0.9,0-1.8-0.6-2-1.5l-0.7-2.1h-8.3l-0.7,2.1c-0.2,0.9-1.1,1.5-2,1.5h-4.5l8-21.7
	c0.2-0.5,0.7-0.9,1.2-0.9h4C-392.1,266.1-391.6,266.5-391.4,267z M-394.7,271.5c-0.3,1.2-0.6,2.3-0.9,3.5c-0.4,1.7-1.3,4.3-1.9,6
	h5.7L-394.7,271.5z"/>
<path class="st1" d="M-317.7,267l8,21.7h-4.4c-0.9,0-1.8-0.6-2-1.5l-0.7-2.1h-8.3l-0.7,2.1c-0.2,0.9-1.1,1.5-2,1.5h-4.4l8-21.7
	c0.2-0.5,0.7-0.9,1.2-0.9h4C-318.4,266.1-317.9,266.5-317.7,267z M-321,271.5c-0.3,1.2-0.6,2.3-0.9,3.5c-0.4,1.7-1.3,4.3-1.9,6h5.7
	L-321,271.5z"/>
<g>
	<path class="st1" d="M-364.2,266.2v3c0,0.8-0.7,1.4-1.4,1.4h-9.8v4.6h10v4.3h-9.3c-0.4,0-0.7,0.3-0.7,0.7v4h11.5v3
		c0,0.8-0.7,1.4-1.4,1.4h-15.1v-21.8c0-0.4,0.3-0.7,0.7-0.7H-364.2L-364.2,266.2z"/>
	<path class="st1" d="M-349.9,271.3v16c0,0.8-0.7,1.4-1.4,1.4h-3.6v-18.1h-6.4v-4.3h17.8v4.3h-5.7
		C-349.6,270.5-349.9,270.8-349.9,271.3z"/>
	<path class="st1" d="M-339.8,266.2h5v21c0,0.8-0.7,1.4-1.4,1.4h-3.6L-339.8,266.2L-339.8,266.2z"/>
</g>
<path class="st1" d="M-383.5,288.5l-2.3-6.4c0,0,0-0.1,0-0.1l-2.3-6.3c0,0.4,0,0.9,0,1.4C-388.2,281.6-386.4,285.7-383.5,288.5z"/>
<path class="st1" d="M-358.5,272.1c0.6,1.5,0.9,3.2,0.9,4.9c0,8-6.5,14.5-14.5,14.5c-2.1,0-4.2-0.4-6.1-1.3h-2.2v0.6
	c2.4,1.5,5.3,2.3,8.3,2.3c8.9,0,16.1-7.2,16.1-16.1c0-1.8-0.2-3.4-0.8-4.9C-356.9,272.1-358.5,272.1-358.5,272.1z"/>
<g>
	<path class="st1" d="M-362.1,264.6c-2.8-2.2-6.2-3.5-10-3.5c-7.3,0-13.5,4.9-15.4,11.5l1,2.7c0.9-7.2,7-12.7,14.4-12.7
		c2.6,0,5.2,0.7,7.3,2C-364.9,264.6-362.1,264.6-362.1,264.6z"/>
</g>
<g>
	<path class="st1" d="M-355.2,298.6v-0.5l0.6-0.6c1.5-1.4,2.2-2.2,2.2-3.1c0-0.6-0.3-1.2-1.2-1.2c-0.6,0-1,0.2-1.3,0.5l-0.2-0.6
		c0.4-0.3,1-0.6,1.7-0.6c1.3,0,1.9,0.9,1.9,1.8c0,1.1-0.8,2-2,3.2l-0.4,0.4l0,0h2.7v0.7L-355.2,298.6L-355.2,298.6z"/>
	<path class="st1" d="M-349.8,294.2l0.6,1c0.1,0.2,0.3,0.4,0.4,0.7h0c0.1-0.2,0.3-0.5,0.4-0.7l0.6-1h0.9l-1.5,2.1l1.6,2.3h-0.9
		l-0.7-1c-0.1-0.2-0.3-0.5-0.4-0.8l0,0c-0.1,0.2-0.3,0.5-0.4,0.8l-0.7,1h-0.9l1.6-2.2l-1.5-2.2H-349.8z"/>
	<path class="st1" d="M-345.9,292.5c0.4,0,0.9-0.1,1.5-0.1c0.8,0,1.4,0.2,1.8,0.5c0.4,0.3,0.6,0.8,0.6,1.3c0,0.6-0.1,1-0.4,1.3
		c-0.4,0.4-1.1,0.7-1.9,0.7c-0.2,0-0.4,0-0.7,0v2.5h-0.8C-345.9,298.6-345.9,292.5-345.9,292.5z M-345.2,295.5c0.1,0,0.4,0,0.7,0
		c1,0,1.5-0.4,1.5-1.3c0-0.8-0.6-1.2-1.5-1.2c-0.3,0-0.6,0-0.8,0L-345.2,295.5L-345.2,295.5z"/>
	<path class="st1" d="M-341.2,295.6c0-0.5,0-1,0-1.4h0.7l0,0.9h0c0.2-0.6,0.7-1,1.2-1c0.1,0,0.1,0,0.2,0v0.8c-0.1,0-0.1,0-0.2,0
		c-0.6,0-1,0.4-1.1,1c0,0.1,0,0.2,0,0.3v2.3h-0.8V295.6L-341.2,295.6z"/>
	<path class="st1" d="M-334.3,296.3c0,1.6-1.1,2.3-2.2,2.3c-1.2,0-2.1-0.9-2.1-2.3c0-1.5,1-2.3,2.2-2.3
		C-335.2,294-334.3,295-334.3,296.3z M-337.8,296.4c0,1,0.6,1.7,1.3,1.7c0.8,0,1.3-0.7,1.3-1.8c0-0.8-0.3-1.7-1.3-1.7
		C-337.4,294.7-337.8,295.6-337.8,296.4z"/>
	<path class="st1" d="M-332.3,292.9v1.3h1.2v0.6h-1.2v2.4c0,0.6,0.1,0.9,0.6,0.9c0.2,0,0.3,0,0.4,0l0,0.6c-0.1,0-0.4,0.1-0.7,0.1
		s-0.7-0.1-0.9-0.3c-0.2-0.2-0.3-0.6-0.3-1.2v-2.4h-0.7v-0.6h0.7v-1.1L-332.3,292.9z"/>
	<path class="st1" d="M-329.8,296.5c0,1.1,0.7,1.5,1.5,1.5c0.6,0,0.9-0.1,1.2-0.2l0.1,0.6c-0.3,0.1-0.8,0.2-1.5,0.2
		c-1.4,0-2.2-0.9-2.2-2.2s0.8-2.4,2.1-2.4c1.4,0,1.9,1.3,1.9,2.1c0,0.1,0,0.3,0,0.3L-329.8,296.5L-329.8,296.5L-329.8,296.5z
		 M-327.5,296c0-0.5-0.2-1.3-1.1-1.3c-0.8,0-1.2,0.8-1.2,1.3H-327.5z"/>
	<path class="st1" d="M-322.5,298.4c-0.2,0.1-0.7,0.2-1.3,0.2c-1.3,0-2.2-0.9-2.2-2.2c0-1.4,0.9-2.3,2.4-2.3c0.4,0,0.9,0.1,1.1,0.2
		l-0.2,0.6c-0.2-0.1-0.5-0.2-0.9-0.2c-1,0-1.6,0.8-1.6,1.7c0,1,0.7,1.7,1.5,1.7c0.4,0,0.8-0.1,1-0.2L-322.5,298.4z"/>
	<path class="st1" d="M-320.5,292.9v1.3h1.2v0.6h-1.2v2.4c0,0.6,0.1,0.9,0.6,0.9c0.2,0,0.3,0,0.4,0l0,0.6c-0.1,0-0.4,0.1-0.7,0.1
		s-0.7-0.1-0.9-0.3c-0.2-0.2-0.3-0.6-0.3-1.2v-2.4h-0.7v-0.6h0.7v-1.1L-320.5,292.9z"/>
	<path class="st1" d="M-317.5,292.9c0,0.2-0.2,0.5-0.5,0.5c-0.3,0-0.5-0.2-0.5-0.5c0-0.3,0.2-0.5,0.5-0.5
		C-317.7,292.4-317.5,292.6-317.5,292.9z M-318.4,298.6v-4.4h0.8v4.4H-318.4z"/>
	<path class="st1" d="M-312.2,296.3c0,1.6-1.1,2.3-2.2,2.3c-1.2,0-2.1-0.9-2.1-2.3c0-1.5,1-2.3,2.2-2.3
		C-313.1,294-312.2,295-312.2,296.3z M-315.7,296.4c0,1,0.6,1.7,1.3,1.7c0.8,0,1.3-0.7,1.3-1.8c0-0.8-0.3-1.7-1.3-1.7
		C-315.4,294.7-315.7,295.6-315.7,296.4z"/>
	<path class="st1" d="M-311.2,295.4c0-0.4,0-0.8,0-1.2h0.7l0,0.7l0,0c0.2-0.4,0.7-0.8,1.5-0.8c0.6,0,1.6,0.3,1.6,1.9v2.6h-0.8V296
		c0-0.7-0.2-1.3-1-1.3c-0.5,0-1,0.3-1.1,0.8c0,0.1,0,0.2,0,0.3v2.6h-0.8L-311.2,295.4L-311.2,295.4z"/>
</g>
</svg>
