<?xml version="1.0" encoding="utf-8"?>
<!-- Generator: Adobe Illustrator 19.1.1, SVG Export Plug-In . SVG Version: 6.00 Build 0)  -->
<svg version="1.1" id="Calque_1" xmlns="http://www.w3.org/2000/svg" xmlns:xlink="http://www.w3.org/1999/xlink" x="0px" y="0px"
	 viewBox="-378 240.3 202.7 80.7" style="enable-background:new -378 240.3 202.7 80.7;" xml:space="preserve">
<style type="text/css">
	.st0{fill:#2C317D;}
</style>
<path class="st0" d="M-347.8,254.3l16.3,44.5h-9.1c-1.9,0-3.6-1.3-4.1-3l-1.4-4.4h-17l-1.4,4.4c-0.5,1.8-2.2,3-4.1,3h-9.2l16.5-44.5
	c0.4-1,1.4-1.8,2.5-1.8h8.3C-349.2,252.5-348.1,253.2-347.8,254.3z M-354.6,263.5c-0.6,2.4-1.3,4.8-1.9,7.1
	c-0.9,3.5-2.7,8.9-3.8,12.3h11.7L-354.6,263.5z"/>
<path class="st0" d="M-196.7,254.3l16.3,44.5h-9.1c-1.9,0-3.6-1.3-4.1-3l-1.4-4.4H-212l-1.4,4.4c-0.5,1.8-2.2,3-4.1,3h-9.1
	l16.5-44.5c0.4-1,1.4-1.8,2.5-1.8h8.3C-198.1,252.5-197.1,253.2-196.7,254.3z M-203.5,263.5c-0.6,2.4-1.3,4.8-1.9,7.1
	c-0.9,3.5-2.7,8.9-3.8,12.3h11.7L-203.5,263.5z"/>
<g>
	<path class="st0" d="M-292.1,252.6v6.2c0,1.7-1.4,2.9-2.9,2.9h-20v9.5h20.6v8.8h-19.1c-0.8,0-1.5,0.6-1.5,1.5v8.1h23.6v6.2
		c0,1.7-1.4,2.9-2.9,2.9h-31v-44.6c0-0.8,0.6-1.5,1.5-1.5L-292.1,252.6L-292.1,252.6z"/>
	<path class="st0" d="M-262.7,263v32.8c0,1.7-1.4,2.9-2.9,2.9h-7.3v-37.1h-13.1v-8.9h36.4v8.9h-11.6
		C-262,261.5-262.7,262.1-262.7,263z"/>
	<path class="st0" d="M-242.1,252.6h10.3v43.1c0,1.7-1.4,2.9-2.9,2.9h-7.3V252.6z"/>
</g>
<path class="st0" d="M-331.5,298.4l-4.8-13.1c0-0.1-0.1-0.2-0.1-0.3l-4.8-12.9c-0.1,0.9-0.1,1.9-0.1,2.8
	C-341.3,284.2-337.6,292.5-331.5,298.4z"/>
<path class="st0" d="M-280.3,264.8c1.2,3.1,1.8,6.6,1.8,10c0,16.4-13.4,29.8-29.8,29.8c-4.4,0-8.7-0.9-12.5-2.7h-4.6v1.2
	c4.9,3,10.8,4.7,17,4.7c18.2,0,33-14.8,33-33c0-3.6-0.5-6.9-1.6-10C-277.1,264.8-280.3,264.8-280.3,264.8z"/>
<g>
	<path class="st0" d="M-287.8,249.3c-5.7-4.5-12.8-7.2-20.5-7.2c-15,0-27.6,10-31.6,23.6l2.1,5.5c1.9-14.7,14.4-26.1,29.5-26.1
		c5.4,0,10.6,1.5,15,4.1C-293.4,249.3-287.8,249.3-287.8,249.3z"/>
</g>
<g>
	<path class="st0" d="M-273.6,319.1v-1l1.3-1.3c3.1-2.9,4.5-4.6,4.6-6.4c0-1.3-0.6-2.4-2.4-2.4c-1.2,0-2,0.5-2.6,1l-0.5-1.2
		c0.8-0.7,2.1-1.3,3.5-1.3c2.6,0,3.8,1.8,3.8,3.6c0,2.3-1.7,4.1-4.2,6.6l-0.9,0.9l0,0h5.5v1.4L-273.6,319.1L-273.6,319.1z"/>
	<path class="st0" d="M-262.6,310l1.3,2c0.3,0.5,0.6,0.9,0.9,1.5h0.1c0.3-0.5,0.6-1,0.9-1.5l1.3-2h1.8l-3.1,4.4l3.2,4.7h-1.9
		l-1.4-2.1c-0.3-0.5-0.6-1-0.9-1.6l0,0c-0.3,0.5-0.6,1-0.9,1.6l-1.4,2.1h-1.8l3.2-4.6l-3.1-4.5C-264.4,310-262.6,310-262.6,310z"/>
	<path class="st0" d="M-254.6,306.5c0.8-0.1,1.8-0.2,3.1-0.2c1.6,0,2.8,0.4,3.6,1s1.2,1.6,1.2,2.6c0,1.2-0.3,2.1-0.9,2.7
		c-0.8,0.9-2.3,1.4-3.9,1.4c-0.5,0-0.9,0-1.4-0.1v5.1h-1.7C-254.6,319.1-254.6,306.5-254.6,306.5z M-253,312.7
		c0.3,0.1,0.8,0.1,1.4,0.1c2,0,3.1-0.9,3.1-2.7c0-1.7-1.2-2.5-3-2.5c-0.7,0-1.3,0.1-1.6,0.1L-253,312.7L-253,312.7z"/>
	<path class="st0" d="M-244.9,312.8c0-1,0-2-0.1-2.8h1.5l0.1,1.8h0.1c0.4-1.3,1.5-2,2.5-2c0.2,0,0.3,0,0.4,0.1v1.6
		c-0.2,0-0.3-0.1-0.5-0.1c-1.2,0-2,0.8-2.2,2.1c0,0.2-0.1,0.5-0.1,0.7v4.8h-1.7L-244.9,312.8L-244.9,312.8z"/>
	<path class="st0" d="M-230.7,314.4c0,3.3-2.3,4.8-4.5,4.8c-2.5,0-4.4-1.8-4.4-4.7c0-3,2-4.8,4.5-4.8
		C-232.5,309.7-230.7,311.6-230.7,314.4z M-237.9,314.6c0,2,1.2,3.5,2.7,3.5c1.6,0,2.7-1.5,2.7-3.6c0-1.6-0.7-3.5-2.7-3.5
		C-237.1,311-237.9,312.8-237.9,314.6z"/>
	<path class="st0" d="M-226.6,307.3v2.6h2.4v1.3h-2.4v4.9c0,1.2,0.3,1.8,1.3,1.8c0.4,0,0.7-0.1,0.9-0.1l0.1,1.3
		c-0.3,0.1-0.8,0.2-1.5,0.2c-0.7,0-1.4-0.2-1.8-0.7c-0.5-0.5-0.6-1.3-0.6-2.4v-5h-1.5v-1.3h1.5v-2.2L-226.6,307.3z"/>
	<path class="st0" d="M-221.6,314.8c0,2.2,1.5,3.1,3.1,3.1c1.2,0,1.9-0.2,2.5-0.5l0.3,1.2c-0.6,0.3-1.6,0.5-3,0.5
		c-2.8,0-4.5-1.9-4.5-4.6s1.6-4.9,4.3-4.9c2.9,0,3.8,2.6,3.8,4.3c0,0.3,0,0.6-0.1,0.7h-6.4V314.8z M-216.7,313.6
		c0-1-0.4-2.7-2.3-2.7c-1.7,0-2.4,1.6-2.5,2.7H-216.7z"/>
	<path class="st0" d="M-206.5,318.7c-0.4,0.2-1.4,0.5-2.6,0.5c-2.7,0-4.5-1.9-4.5-4.6c0-2.8,1.9-4.8,4.9-4.8c0.9,0,1.9,0.2,2.3,0.5
		l-0.4,1.3c-0.4-0.2-1-0.4-1.9-0.4c-2.1,0-3.2,1.6-3.2,3.5c0,2.1,1.4,3.5,3.1,3.5c0.9,0,1.6-0.2,2-0.4L-206.5,318.7z"/>
	<path class="st0" d="M-202.4,307.3v2.6h2.4v1.3h-2.4v4.9c0,1.2,0.3,1.8,1.3,1.8c0.4,0,0.7-0.1,0.9-0.1l0.1,1.3
		c-0.3,0.1-0.8,0.2-1.5,0.2c-0.7,0-1.4-0.2-1.8-0.7c-0.5-0.5-0.6-1.3-0.6-2.4v-5h-1.5v-1.3h1.5v-2.2L-202.4,307.3z"/>
	<path class="st0" d="M-196.3,307.3c0,0.5-0.4,1-1,1c-0.6,0-1-0.4-1-1s0.4-1,1-1C-196.7,306.4-196.3,306.8-196.3,307.3z
		 M-198.2,319.1V310h1.7v9.1H-198.2z"/>
	<path class="st0" d="M-185.5,314.4c0,3.3-2.3,4.8-4.5,4.8c-2.5,0-4.4-1.8-4.4-4.7c0-3,2-4.8,4.5-4.8
		C-187.3,309.7-185.5,311.6-185.5,314.4z M-192.7,314.6c0,2,1.2,3.5,2.7,3.5c1.6,0,2.7-1.5,2.7-3.6c0-1.6-0.7-3.5-2.7-3.5
		C-191.9,311-192.7,312.8-192.7,314.6z"/>
	<path class="st0" d="M-183.4,312.4c0-0.9,0-1.7-0.1-2.5h1.5l0.1,1.5l0,0c0.4-0.8,1.5-1.7,3-1.7c1.3,0,3.2,0.7,3.2,3.9v5.4h-1.7
		v-5.2c0-1.5-0.5-2.7-2.1-2.7c-1,0-2,0.7-2.2,1.7c-0.1,0.2-0.1,0.5-0.1,0.7v5.4h-1.7L-183.4,312.4L-183.4,312.4z"/>
</g>
</svg>
