<?xml version="1.0" encoding="utf-8"?>
<!-- Generator: Adobe Illustrator 19.1.1, SVG Export Plug-In . SVG Version: 6.00 Build 0)  -->
<svg version="1.1" id="Capa_1" xmlns="http://www.w3.org/2000/svg" xmlns:xlink="http://www.w3.org/1999/xlink" x="0px" y="0px"
	 viewBox="-194.7 36.7 280 610.7" style="enable-background:new -194.7 36.7 280 610.7;" xml:space="preserve">
<g>
	<path d="M-545.4,266.9c-6,0.7-10.6,5.8-10.6,11.9V276c0-4,1.7-6.8,5.1-8.3C-548.9,266.9-547.1,266.6-545.4,266.9z"/>
</g>
<path d="M82,48.3c0,2.1-0.8,3.9-2.2,5.3c-1.4,1.4-3.2,2.2-5.3,2.2H-16v41.7h0.2v303.9h54.8c7.6,0,13.1,5.8,16.6,17.7
	c3.2,11.7,2.4,22.5-2.6,32.4l-91.4,182.9c-3.4,7.2-8.1,10.7-13.9,10.7c-5.9,0-10.6-3.5-14-10.5l-91.4-182.9c-5.1-10.2-6-21-2.6-32.4
	c3.4-11.7,9-17.7,16.6-17.7H-89V55.8h-94.5c-4.1,0-7.5-3.4-7.5-7.5c0-2.1,0.8-3.9,2.2-5.3c1.4-1.4,3.2-2.2,5.3-2.2h258
	C78.6,40.8,82,44.2,82,48.3z"/>
</svg>
