<?xml version="1.0" encoding="utf-8"?>
<!-- Generator: Adobe Illustrator 19.1.1, SVG Export Plug-In . SVG Version: 6.00 Build 0)  -->
<svg version="1.1" id="Capa_1" xmlns="http://www.w3.org/2000/svg" xmlns:xlink="http://www.w3.org/1999/xlink" x="0px" y="0px"
	 viewBox="-311 122 586 300" style="enable-background:new -311 122 586 300;" xml:space="preserve">
<g>
	<path d="M-545.4,266.9c-6,0.7-10.6,5.8-10.6,11.9V276c0-4,1.7-6.8,5.1-8.3C-548.9,266.9-547.1,266.6-545.4,266.9z"/>
</g>
<path d="M275,309.1c0,5.9-3,10.6-9.1,14l-158.8,91.4c-8.8,5.1-18.3,6-28.1,2.6c-10.1-3.4-15.4-9-15.4-16.6v-54.8h-357.4
	c-3.9,0-7-0.9-9.6-2.6c-2.5-1.7-3.8-3.9-3.8-6.6V138.4c0-6.1,6.8-11.2,15.4-11.9c0.7-0.1,1.3-0.1,2-0.1h71.1c9.6,0,17.4,5.4,17.4,12
	v134.2H63.5v-54.8c0-7.6,5.1-13.1,15.4-16.6c10.1-3.2,19.6-2.4,28.1,2.6l158.8,91.4C272,298.6,275,303.3,275,309.1z"/>
</svg>
