<?xml version="1.0" encoding="utf-8"?>
<!-- Generator: Adobe Illustrator 19.1.1, SVG Export Plug-In . SVG Version: 6.00 Build 0)  -->
<svg version="1.1" id="Capa_1" xmlns="http://www.w3.org/2000/svg" xmlns:xlink="http://www.w3.org/1999/xlink" x="0px" y="0px"
	 viewBox="-411.3 219.2 121 122.7" style="enable-background:new -411.3 219.2 121 122.7;" xml:space="preserve">
<style type="text/css">
	.st0{fill:#FFFFFF;stroke:#2C317D;stroke-width:0.9186;stroke-miterlimit:10;}
	.st1{fill:#2C317D;}
</style>
<circle class="st0" cx="-350.8" cy="280.8" r="59.3"/>
<g>
	<path class="st1" d="M-323.1,270.1v-3.3c0-8-2.8-15.4-7.9-20.9c-5.2-5.6-12.4-8.7-20.3-8.7h-2.7c-7.9,0-15.1,3.1-20.3,8.7
		c-5.1,5.5-7.9,12.9-7.9,20.9v3.3c-6.2,0.4-11.1,5.6-11.1,11.9v5.2c0,6.6,5.4,11.9,11.9,11.9h6.7c1.2,0,2.2-1,2.2-2.2v-24.7
		c0-1.2-1-2.2-2.2-2.2h-3.1v-3.3c0-14.4,10.3-25.2,23.9-25.2h2.7c13.6,0,23.9,10.8,23.9,25.2v3.3h-3.1c-1.2,0-2.2,1-2.2,2.2V297
		c0,1.2,1,2.2,2.2,2.2h3.1c-0.9,11.4-8.7,14-12.4,14.6c-1-3.1-3.9-5.3-7.3-5.3h-5.5c-4.2,0-7.7,3.4-7.7,7.7s3.4,7.7,7.7,7.7h5.5
		c3.5,0,6.5-2.4,7.4-5.6c1.8-0.3,4.6-0.9,7.4-2.5c3.9-2.3,8.6-7,9.2-16.5c6.2-0.4,11.2-5.6,11.2-11.9V282
		C-312,275.7-317,270.5-323.1,270.1z M-377,294.8h-4.5c-4.2,0-7.6-3.4-7.6-7.6V282c0-4.2,3.4-7.6,7.6-7.6h4.5V294.8z M-347.3,319.4
		h-5.5c-1.8,0-3.3-1.5-3.3-3.3s1.5-3.3,3.3-3.3h5.5c1.8,0,3.3,1.5,3.3,3.3C-344,318-345.5,319.4-347.3,319.4z M-316.4,287.2
		c0,4.2-3.4,7.6-7.6,7.6h-4.5v-20.3h4.5c4.2,0,7.6,3.4,7.6,7.6V287.2z"/>
</g>
</svg>
