<?xml version="1.0" encoding="utf-8"?>
<!-- Generator: Adobe Illustrator 19.1.1, SVG Export Plug-In . SVG Version: 6.00 Build 0)  -->
<svg version="1.1" id="Capa_1" xmlns="http://www.w3.org/2000/svg" xmlns:xlink="http://www.w3.org/1999/xlink" x="0px" y="0px"
	 viewBox="-413 218.5 124 124" style="enable-background:new -413 218.5 124 124;" xml:space="preserve">
<style type="text/css">
	.st0{fill:#FFFFFF;stroke:#2C317D;stroke-miterlimit:10;}
	.st1{fill:#2C317D;}
</style>
<circle class="st0" cx="-350.8" cy="280.8" r="59.3"/>
<g>
	<path class="st1" d="M-350.5,270v-14.5c3.4-0.9,5.9-4,5.9-7.6c0-4.3-3.5-7.9-7.9-7.9c-4.3,0-7.9,3.5-7.9,7.9c0,3.7,2.5,6.7,5.9,7.6
		V270c-4.1,0.6-7.6,3.2-9.5,6.7l-8.6-6.7c0.2-0.6,0.3-1.2,0.3-1.9c0-3.1-2.5-5.7-5.7-5.7s-5.7,2.5-5.7,5.7c0,3.1,2.5,5.7,5.7,5.7
		c1,0,2-0.3,2.8-0.8l9.7,7.6c-0.1,0.8-0.2,1.6-0.2,2.4c0,2.9,1,5.6,2.6,7.8l-11,11c-0.8,0.8-0.8,2,0,2.8c0.4,0.4,0.9,0.6,1.4,0.6
		s1-0.2,1.4-0.6l11-11c1.7,1.2,3.7,2.1,5.8,2.4v14.5c-2.2,0.8-3.7,2.9-3.7,5.3c0,3.1,2.5,5.7,5.7,5.7c3.1,0,5.7-2.5,5.7-5.7
		c0-2.4-1.5-4.5-3.7-5.3V296c6.3-0.9,11.1-6.4,11.1-12.9C-339.5,276.3-344.3,270.9-350.5,270z M-378,269.8c-1,0-1.8-0.8-1.8-1.8
		s0.8-1.8,1.8-1.8s1.8,0.8,1.8,1.8S-377,269.8-378,269.8z M-356.5,247.8c0-2.2,1.8-4,4-4s4,1.8,4,4s-1.8,4-4,4
		C-354.8,251.8-356.5,250-356.5,247.8z M-352.5,317.5c-1,0-1.8-0.8-1.8-1.8c0-0.8,0.6-1.6,1.4-1.7c0.1,0,0.2,0,0.4,0s0.2,0,0.4,0
		c0.8,0.2,1.4,0.9,1.4,1.7C-350.8,316.8-351.5,317.5-352.5,317.5z M-352.5,292.1c-5.1,0-9.2-4.1-9.2-9.2c0-0.9,0.1-1.8,0.4-2.6v-0.1
		c1.2-3.8,4.7-6.5,8.8-6.5c5.1,0,9.2,4.1,9.2,9.2S-347.5,292.1-352.5,292.1z"/>
	<path class="st1" d="M-313.9,263.9c-4.3,0-7.9,3.5-7.9,7.9c0,0.2,0,0.4,0,0.6l-14.1,4.8c-1,0.3-1.6,1.5-1.2,2.5
		c0.3,0.8,1,1.3,1.9,1.3c0.2,0,0.4,0,0.6-0.1l14.1-4.8c1.4,2.1,3.8,3.6,6.6,3.6c4.3,0,7.9-3.5,7.9-7.9S-309.5,263.9-313.9,263.9z
		 M-313.9,275.8c-2.2,0-4-1.8-4-4s1.8-4,4-4s4,1.8,4,4C-309.9,273.9-311.6,275.8-313.9,275.8z"/>
	<path class="st1" d="M-381.6,304.3c-4.3,0-7.9,3.5-7.9,7.9c0,4.3,3.5,7.9,7.9,7.9c4.3,0,7.9-3.5,7.9-7.9
		C-373.9,307.8-377.4,304.3-381.6,304.3z M-381.6,316c-2.2,0-4-1.8-4-4s1.8-4,4-4s4,1.8,4,4C-377.8,314.3-379.5,316-381.6,316z"/>
</g>
</svg>
