<?xml version="1.0" encoding="utf-8"?>
<!-- Generator: Adobe Illustrator 19.1.1, SVG Export Plug-In . SVG Version: 6.00 Build 0)  -->
<svg version="1.1" id="Capa_1" xmlns="http://www.w3.org/2000/svg" xmlns:xlink="http://www.w3.org/1999/xlink" x="0px" y="0px"
	 viewBox="-230.9 400.3 40.5 40.5" style="enable-background:new -230.9 400.3 40.5 40.5;" xml:space="preserve">
<g>
	<path d="M-192.1,408.5l-12.1,12.1l12.1,12.1c1.8,1.8,1.8,4.7,0,6.5c-0.9,0.9-2.1,1.3-3.2,1.3c-1.2,0-2.3-0.4-3.2-1.3l-12.1-12.1
		l-12.1,12.1c-0.9,0.9-2.1,1.3-3.2,1.3c-1.2,0-2.3-0.4-3.2-1.3c-1.8-1.8-1.8-4.7,0-6.5l12.1-12.1l-12.1-12.1c-1.8-1.8-1.8-4.7,0-6.5
		c1.8-1.8,4.7-1.8,6.5,0l12.1,12.1l12.1-12.1c1.8-1.8,4.7-1.8,6.5,0C-190.3,403.8-190.3,406.7-192.1,408.5z"/>
</g>
</svg>
