<?xml version="1.0" encoding="utf-8"?>
<!-- Generator: Adobe Illustrator 19.1.1, SVG Export Plug-In . SVG Version: 6.00 Build 0)  -->
<svg version="1.1" id="Layer_1" xmlns="http://www.w3.org/2000/svg" xmlns:xlink="http://www.w3.org/1999/xlink" x="0px" y="0px"
	 viewBox="107.9 371.8 99.2 99.2" style="enable-background:new 107.9 371.8 99.2 99.2;" xml:space="preserve">
<g>
	<path d="M175.4,407.1c0-17.8-14.4-32.2-32.2-32.2S111,389.3,111,407.1c0,6.7,2.1,13,5.6,18.1l-4.2,12.7l12.7-4.2
		c5.2,3.5,11.4,5.6,18.1,5.6C161,439.3,175.4,424.9,175.4,407.1z"/>
	<path d="M204,435.7c0-14.4-9.5-26.6-22.5-30.7c0,0.7,0.1,1.4,0.1,2.1c0,5.2-1,10.2-3,14.9c-1.9,4.6-4.7,8.7-8.2,12.2
		c-3.5,3.5-7.6,6.3-12.2,8.2c-4.7,2-9.7,3-14.9,3c-0.7,0-1.4,0-2.1-0.1c4.1,13.1,16.3,22.5,30.7,22.5c6.7,0,13-2.1,18.1-5.6
		l12.7,4.2l-4.2-12.7C201.9,448.7,204,442.4,204,435.7z"/>
</g>
</svg>
