<?xml version="1.0" encoding="utf-8"?>
<!-- Generator: Adobe Illustrator 19.1.1, SVG Export Plug-In . SVG Version: 6.00 Build 0)  -->
<svg version="1.1" id="Layer_1" xmlns="http://www.w3.org/2000/svg" xmlns:xlink="http://www.w3.org/1999/xlink" x="0px" y="0px"
	 viewBox="-419 220.4 120.6 120.6" style="enable-background:new -419 220.4 120.6 120.6;" xml:space="preserve">
<style type="text/css">
	.st0{fill:#FFFFFF;stroke:#2C317D;stroke-width:0.9186;stroke-miterlimit:10;}
	.st1{fill:#2C317D;}
</style>
<circle class="st0" cx="-358.7" cy="280.7" r="59.3"/>
<g>
	<g>
		<path class="st1" d="M-327.2,258.6l-9.4-9.4c-1.1-1.1-2.6-1.7-4.1-1.7c-1.2,0-32.3,0-33.7,0h-11.7c-3.2,0-5.8,2.6-5.8,5.8v54.8
			c0,3.2,2.6,5.8,5.8,5.8c2.9,0,52.5,0,54.8,0c3.2,0,5.8-2.6,5.8-5.8v-45.4C-325.5,261.2-326.1,259.7-327.2,258.6z M-372.5,251.4
			h19.7v9.7c0,1.1,0.9,1.9,1.9,1.9s1.9-0.9,1.9-1.9v-9.7h3.9V265c0,1.1-0.9,1.9-1.9,1.9h-23.6c-1.1,0-1.9-0.9-1.9-1.9V251.4z
			 M-341.1,310h-35.3v-19.5h35.3V310z M-341.1,286.7h-35.3v-1.9c0-1.1,0.9-1.9,1.9-1.9h31.4c1.1,0,1.9,0.9,1.9,1.9V286.7z
			 M-329.4,308.1c0,1.1-0.9,1.9-1.9,1.9h-5.8v-25.3c0-3.2-2.6-5.8-5.8-5.8h-31.4c-3.2,0-5.8,2.6-5.8,5.8V310h-5.8
			c-1.1,0-1.9-0.9-1.9-1.9v-54.8c0-1.1,0.9-1.9,1.9-1.9h9.7V265c0,3.2,2.6,5.8,5.8,5.8h23.6c3.2,0,5.8-2.6,5.8-5.8v-13.6h0.3
			c0.5,0,1,0.2,1.4,0.6l9.4,9.4c0.4,0.4,0.6,0.9,0.6,1.4V308.1z"/>
	</g>
</g>
</svg>
