<?xml version="1.0" encoding="utf-8"?>
<!-- Generator: Adobe Illustrator 19.1.1, SVG Export Plug-In . SVG Version: 6.00 Build 0)  -->
<svg version="1.1" id="Capa_1" xmlns="http://www.w3.org/2000/svg" xmlns:xlink="http://www.w3.org/1999/xlink" x="0px" y="0px"
	 viewBox="-223 25 512 512" style="enable-background:new -223 25 512 512;" xml:space="preserve">
<style type="text/css">
	.st0{fill:#2C317D;}
</style>
<g>
	<g>
		<path class="st0" d="M217.5,155L164,101.5c-6.3-6.3-14.6-9.8-23.5-9.8c-6.6,0-183.9,0-191.9,0H-118c-18.3,0-33.3,14.9-33.3,33.3
			v312c0,18.3,14.9,33.3,33.3,33.3c16.4,0,299.1,0,312,0c18.3,0,33.3-14.9,33.3-33.3V178.5C227.2,169.7,223.8,161.3,217.5,155z
			 M-40.4,113.9H72v55.4c0,6.1,5,11.1,11.1,11.1s11.1-5,11.1-11.1v-55.4h22.2v77.6c0,6.1-5,11.1-11.1,11.1H-29.3
			c-6.1,0-11.1-5-11.1-11.1V113.9z M138.5,448.1H-62.5V337.2h201.1V448.1z M138.5,315H-62.5v-11.1c0-6.1,5-11.1,11.1-11.1h178.9
			c6.1,0,11.1,5,11.1,11.1V315z M205.1,437c0,6.1-5,11.1-11.1,11.1h-33.3V303.9c0-18.3-14.9-33.3-33.3-33.3H-51.4
			c-18.3,0-33.3,14.9-33.3,33.3v144.2H-118c-6.1,0-11.1-5-11.1-11.1V125c0-6.1,5-11.1,11.1-11.1h55.4v77.6
			c0,18.3,14.9,33.3,33.3,33.3h134.5c18.3,0,33.3-14.9,33.3-33.3v-77.6h1.9c3,0,5.8,1.2,7.8,3.3l53.5,53.5c2.1,2.1,3.3,4.9,3.3,7.8
			V437z"/>
	</g>
</g>
</svg>
