<?xml version="1.0" encoding="utf-8"?>
<!-- Generator: Adobe Illustrator 19.1.1, SVG Export Plug-In . SVG Version: 6.00 Build 0)  -->
<svg version="1.1" id="Capa_1" xmlns="http://www.w3.org/2000/svg" xmlns:xlink="http://www.w3.org/1999/xlink" x="0px" y="0px"
	 viewBox="-418 220.2 121.3 121.8" style="enable-background:new -418 220.2 121.3 121.8;" xml:space="preserve">
<style type="text/css">
	.st0{fill:none;stroke:#2C317D;stroke-miterlimit:10;}
	.st1{fill:#2C317D;}
</style>
<circle class="st0" cx="-357.4" cy="281.1" r="59.3"/>
<g>
	<path class="st1" d="M-362.1,254h-20.2c-1.9,0-3.5,1.6-3.5,3.5V272c0,1.9,1.6,3.5,3.5,3.5h8.7v2.4h-2.6c-0.8,0-1.4,0.6-1.4,1.4
		c0,0.8,0.7,1.4,1.4,1.4h8.1c0.8,0,1.4-0.6,1.4-1.4c0-0.8-0.6-1.4-1.4-1.4h-2.6v-2.4h8.7c1.9,0,3.5-1.6,3.5-3.5v-14.5
		C-358.6,255.6-360.1,254-362.1,254z M-361.4,272c0,0.4-0.3,0.7-0.7,0.7h-20.2c-0.4,0-0.7-0.3-0.7-0.7v-14.5c0-0.4,0.3-0.7,0.7-0.7
		h20.2c0.4,0,0.7,0.3,0.7,0.7V272z"/>
	<path class="st1" d="M-332.2,283.8h-20.2c-1.9,0-3.5,1.6-3.5,3.5v14.5c0,1.9,1.6,3.5,3.5,3.5h8.7v2.4h-2.6c-0.8,0-1.4,0.6-1.4,1.4
		c0,0.8,0.6,1.4,1.4,1.4h8.1c0.8,0,1.4-0.6,1.4-1.4c0-0.8-0.6-1.4-1.4-1.4h-2.6v-2.4h8.7c1.9,0,3.5-1.6,3.5-3.5v-14.5
		C-328.7,285.4-330.3,283.8-332.2,283.8z M-331.5,301.9c0,0.4-0.3,0.7-0.7,0.7h-20.2c-0.4,0-0.7-0.3-0.7-0.7v-14.5
		c0-0.4,0.3-0.7,0.7-0.7h20.2c0.4,0,0.7,0.3,0.7,0.7V301.9z"/>
	<path class="st1" d="M-342.3,263.3h-11.1c-0.8,0-1.4,0.6-1.4,1.4s0.6,1.4,1.4,1.4h9.6v9.9l-1.2-1.2c-0.6-0.6-1.5-0.6-2,0
		s-0.6,1.5,0,2l3.6,3.6c0.3,0.3,0.6,0.4,1,0.4s0.7-0.1,1-0.4l3.6-3.6c0.6-0.6,0.6-1.5,0-2s-1.5-0.6-2,0l-1.2,1.2v-11.4
		C-340.9,264-341.5,263.3-342.3,263.3z"/>
	<path class="st1" d="M-369.6,290.3c0.3,0.3,0.6,0.4,1,0.4s0.7-0.1,1-0.4c0.6-0.6,0.6-1.5,0-2l-3.6-3.6c-0.6-0.6-1.5-0.6-2,0
		l-3.6,3.6c-0.6,0.6-0.6,1.5,0,2s1.5,0.6,2,0l1.2-1.2v11.4c0,0.8,0.6,1.4,1.4,1.4h11c0.8,0,1.4-0.6,1.4-1.4s-0.6-1.4-1.4-1.4h-9.6
		v-9.9L-369.6,290.3z"/>
</g>
</svg>
