<?xml version="1.0" encoding="utf-8"?>
<!-- Generator: Adobe Illustrator 19.1.1, SVG Export Plug-In . SVG Version: 6.00 Build 0)  -->
<svg version="1.1" id="Layer_1" xmlns="http://www.w3.org/2000/svg" xmlns:xlink="http://www.w3.org/1999/xlink" x="0px" y="0px"
	 viewBox="-426 247.5 106.5 67.5" style="enable-background:new -426 247.5 106.5 67.5;" xml:space="preserve">
<style type="text/css">
	.st0{fill:#333366;}
</style>
<g>
	<g>
		<g>
			<path class="st0" d="M-338.4,300.1c-1.7,0-3.1,1.4-3.1,3.1s1.4,3.1,3.1,3.1s3.1-1.4,3.1-3.1S-336.7,300.1-338.4,300.1z"/>
			<path class="st0" d="M-400.9,300.1c-1.7,0-3.1,1.4-3.1,3.1s1.4,3.1,3.1,3.1s3.1-1.4,3.1-3.1S-399.2,300.1-400.9,300.1z"/>
			<path class="st0" d="M-325.2,279.4l-12-5.3l-8.8-19c-1.1-2.4-3.5-4-6.2-4h-64.4c-2.8,0-5.1,2.3-5.1,5.1v43.4
				c0,2.8,2.3,5.1,5.1,5.1h5.4c0.8,4.9,5,8.7,10.2,8.7s9.4-3.8,10.2-8.7h42.2c0.8,4.9,5,8.7,10.2,8.7s9.4-3.8,10.2-8.7h2
				c2.8,0,5.1-2.3,5.1-5.1v-14C-321.2,283.1-322.8,280.6-325.2,279.4z M-345.9,263.1l4.9,10.6h-14.9v-10.6H-345.9z M-400.9,310.2
				c-3.9,0-7.1-3.2-7.1-7.1c0-3.9,3.2-7.1,7.1-7.1s7.1,3.2,7.1,7.1C-393.9,307.1-397.1,310.2-400.9,310.2z M-338.4,310.2
				c-3.9,0-7.1-3.2-7.1-7.1c0-3.9,3.2-7.1,7.1-7.1s7.1,3.2,7.1,7.1C-331.4,307.1-334.6,310.2-338.4,310.2z M-324.4,294.6h-1.8
				c-0.9,0-1.6,0.7-1.6,1.6c0,0.9,0.7,1.6,1.6,1.6h1.8v1.8c0,1-0.8,1.8-1.8,1.8h-2c-0.8-4.9-5-8.7-10.2-8.7s-9.4,3.8-10.2,8.7h-42.1
				c-0.8-4.9-5-8.7-10.2-8.7s-9.4,3.8-10.2,8.7h-5.4c-1,0-1.8-0.8-1.8-1.8v-1.8h5.3c0.9,0,1.6-0.7,1.6-1.6c0-0.9-0.7-1.6-1.6-1.6
				h-5.3v-38.3c0-1,0.8-1.8,1.8-1.8h64.3c1.4,0,2.7,0.8,3.3,2.1l1.5,3.3h-15.3c-1.9,0-3.4,1.5-3.4,3.4v6.9c0,3.8,3.1,6.8,6.8,6.8
				h20.5l10.1,4.5l-0.3,0.2c-1.5,0.9-2.5,2.6-2.5,4.4v3.3c0,0.9,0.7,1.6,1.6,1.6h5.3v3.6H-324.4z M-359.2,263.1v10.6h-0.1
				c-2,0-3.6-1.6-3.6-3.6v-6.9c0-0.1,0-0.1,0.1-0.1H-359.2z M-324.4,287.6h-3.7V286c0-0.6,0.3-1.2,0.9-1.6l1.9-1.1
				c0.6,0.6,0.9,1.5,0.9,2.4C-324.4,285.7-324.4,287.6-324.4,287.6z"/>
			<path class="st0" d="M-350.6,294.6h-38.2c-0.9,0-1.6,0.7-1.6,1.6c0,0.9,0.7,1.6,1.6,1.6h38.2c0.9,0,1.6-0.7,1.6-1.6
				C-349,295.3-349.7,294.6-350.6,294.6z"/>
		</g>
	</g>
</g>
<rect x="-411.7" y="256.8" class="st0" width="9.2" height="9.5"/>
<rect x="-411.7" y="268.7" class="st0" width="9.2" height="9.5"/>
<rect x="-399.4" y="268.7" class="st0" width="9.2" height="9.5"/>
<rect x="-399.4" y="256.8" class="st0" width="9.2" height="9.5"/>
<rect x="-411.7" y="280.7" class="st0" width="21.6" height="8.7"/>
<rect x="-386.8" y="256.8" class="st0" width="8.7" height="32.6"/>
</svg>
