<?xml version="1.0" encoding="utf-8"?>
<!-- Generator: Adobe Illustrator 19.1.1, SVG Export Plug-In . SVG Version: 6.00 Build 0)  -->
<svg version="1.1" id="Layer_1" xmlns="http://www.w3.org/2000/svg" xmlns:xlink="http://www.w3.org/1999/xlink" x="0px" y="0px"
	 viewBox="-414.9 220.1 120.6 120.6" style="enable-background:new -414.9 220.1 120.6 120.6;" xml:space="preserve">
<style type="text/css">
	.st0{fill:#FFFFFF;stroke:#2C317D;stroke-width:0.9186;stroke-miterlimit:10;}
	.st1{fill:#2C317D;}
</style>
<circle class="st0" cx="-354.5" cy="280.6" r="59.3"/>
<g>
	<g>
		<g>
			<path class="st1" d="M-320,300c-1.7,0-3.1,1.4-3.1,3.1s1.4,3.1,3.1,3.1s3.1-1.4,3.1-3.1S-318.3,300-320,300z"/>
			<path class="st1" d="M-382.5,300c-1.7,0-3.1,1.4-3.1,3.1s1.4,3.1,3.1,3.1s3.1-1.4,3.1-3.1S-380.8,300-382.5,300z"/>
			<path class="st1" d="M-306.8,279.3l-12-5.3l-8.8-19c-1.1-2.4-3.5-4-6.2-4h-64.4c-2.8,0-5.1,2.3-5.1,5.1v43.4
				c0,2.8,2.3,5.1,5.1,5.1h5.4c0.8,4.9,5,8.7,10.2,8.7s9.4-3.8,10.2-8.7h42.2c0.8,4.9,5,8.7,10.2,8.7s9.4-3.8,10.2-8.7h2
				c2.8,0,5.1-2.3,5.1-5.1v-14C-302.8,283-304.4,280.5-306.8,279.3z M-327.5,263l4.9,10.6h-14.9V263H-327.5z M-382.5,310.1
				c-3.9,0-7.1-3.2-7.1-7.1s3.2-7.1,7.1-7.1s7.1,3.2,7.1,7.1C-375.5,307-378.7,310.1-382.5,310.1z M-320,310.1
				c-3.9,0-7.1-3.2-7.1-7.1s3.2-7.1,7.1-7.1s7.1,3.2,7.1,7.1C-313,307-316.2,310.1-320,310.1z M-306,294.5h-1.8
				c-0.9,0-1.6,0.7-1.6,1.6s0.7,1.6,1.6,1.6h1.8v1.8c0,1-0.8,1.8-1.8,1.8h-2c-0.8-4.9-5-8.7-10.2-8.7s-9.4,3.8-10.2,8.7h-42.1
				c-0.8-4.9-5-8.7-10.2-8.7s-9.4,3.8-10.2,8.7h-5.4c-1,0-1.8-0.8-1.8-1.8v-1.8h5.3c0.9,0,1.6-0.7,1.6-1.6s-0.7-1.6-1.6-1.6h-5.3
				v-38.3c0-1,0.8-1.8,1.8-1.8h64.3c1.4,0,2.7,0.8,3.3,2.1l1.5,3.3h-15.3c-1.9,0-3.4,1.5-3.4,3.4v6.9c0,3.8,3.1,6.8,6.8,6.8h20.5
				l10.1,4.5l-0.3,0.2c-1.5,0.9-2.5,2.6-2.5,4.4v3.3c0,0.9,0.7,1.6,1.6,1.6h5.3v3.6L-306,294.5L-306,294.5z M-340.8,263v10.6h-0.1
				c-2,0-3.6-1.6-3.6-3.6v-6.9c0-0.1,0-0.1,0.1-0.1H-340.8z M-306,287.5h-3.7v-1.6c0-0.6,0.3-1.2,0.9-1.6l1.9-1.1
				c0.6,0.6,0.9,1.5,0.9,2.4C-306,285.6-306,287.5-306,287.5z"/>
			<path class="st1" d="M-332.2,294.5h-38.2c-0.9,0-1.6,0.7-1.6,1.6s0.7,1.6,1.6,1.6h38.2c0.9,0,1.6-0.7,1.6-1.6
				S-331.3,294.5-332.2,294.5z"/>
		</g>
	</g>
</g>
<rect x="-393.3" y="256.7" class="st1" width="9.2" height="9.5"/>
<rect x="-393.3" y="268.6" class="st1" width="9.2" height="9.5"/>
<rect x="-381" y="268.6" class="st1" width="9.2" height="9.5"/>
<rect x="-381" y="256.7" class="st1" width="9.2" height="9.5"/>
<rect x="-393.3" y="280.6" class="st1" width="21.6" height="8.7"/>
<rect x="-368.4" y="256.7" class="st1" width="8.7" height="32.6"/>
</svg>
