<?xml version="1.0" encoding="utf-8"?>
<!-- Generator: Adobe Illustrator 19.1.1, SVG Export Plug-In . SVG Version: 6.00 Build 0)  -->
<svg version="1.1" id="Artwork" xmlns="http://www.w3.org/2000/svg" xmlns:xlink="http://www.w3.org/1999/xlink" x="0px" y="0px"
	 viewBox="-223 25 512 512" style="enable-background:new -223 25 512 512;" xml:space="preserve">
<style type="text/css">
	.st0{fill:#2C317D;}
</style>
<g>
	<path class="st0" d="M-8.2,39.2h-172.4c-16.6,0-30.1,13.5-30.1,30.1v123.8c0,16.6,13.5,30.1,30.1,30.1h73.9v20.2h-22.4
		c-6.8,0-12.3,5.5-12.3,12.3c0,6.8,5.6,12.3,12.3,12.3h69.4c6.8,0,12.3-5.5,12.3-12.3s-5.5-12.3-12.3-12.3h-22.4v-20.2h73.9
		c16.6,0,30.1-13.5,30.1-30.1V69.4C21.9,52.8,8.4,39.2-8.2,39.2z M-2.6,193.2c0,3.1-2.5,5.6-5.6,5.6h-172.4c-3.1,0-5.6-2.5-5.6-5.6
		V69.4c0-3.1,2.5-5.6,5.6-5.6H-8.2c3.1,0,5.6,2.5,5.6,5.6V193.2z"/>
	<path class="st0" d="M246.6,294H74.2c-16.6,0-30.1,13.5-30.1,30.1V448c0,16.6,13.5,30.1,30.1,30.1h73.9v20.2h-22.4
		c-6.8,0-12.3,5.5-12.3,12.3c0,6.8,5.5,12.3,12.3,12.3h69.4c6.8,0,12.3-5.5,12.3-12.3c0-6.8-5.5-12.3-12.3-12.3h-22.4v-20.2h73.9
		c16.6,0,30.1-13.5,30.1-30.1V324.1C276.7,307.5,263.2,294,246.6,294z M252.2,448c0,3.1-2.5,5.6-5.6,5.6H74.2
		c-3.1,0-5.6-2.5-5.6-5.6V324.1c0-3.1,2.5-5.6,5.6-5.6h172.4c3.1,0,5.6,2.5,5.6,5.6V448z"/>
	<path class="st0" d="M160.4,119H66c-6.8,0-12.3,5.5-12.3,12.3s5.5,12.3,12.3,12.3h82.1v84.7L138,218.1c-4.8-4.8-12.5-4.8-17.3,0
		s-4.8,12.5,0,17.3l31,31c2.4,2.4,5.5,3.6,8.7,3.6s6.3-1.2,8.7-3.6l31-31c4.8-4.8,4.8-12.5,0-17.3s-12.5-4.8-17.3,0l-10.1,10.1
		v-96.9C172.6,124.5,167.2,119,160.4,119z"/>
	<path class="st0" d="M-72,349.1c2.4,2.4,5.5,3.6,8.7,3.6s6.3-1.2,8.7-3.6c4.8-4.8,4.8-12.5,0-17.3l-31-31c-4.8-4.8-12.5-4.8-17.3,0
		l-31,31c-4.8,4.8-4.8,12.5,0,17.3s12.5,4.8,17.3,0l10.1-10.1v96.9c0,6.8,5.5,12.3,12.3,12.3H0c6.8,0,12.3-5.5,12.3-12.3
		S6.8,423.6,0,423.6h-82.1v-84.7L-72,349.1z"/>
</g>
</svg>
