<?xml version="1.0" encoding="utf-8"?>
<!-- Generator: Adobe Illustrator 19.1.1, SVG Export Plug-In . SVG Version: 6.00 Build 0)  -->
<svg version="1.1" id="Capa_1" xmlns="http://www.w3.org/2000/svg" xmlns:xlink="http://www.w3.org/1999/xlink" x="0px" y="0px"
	 viewBox="-418 220.2 121.3 121.8" style="enable-background:new -418 220.2 121.3 121.8;" xml:space="preserve">
<style type="text/css">
	.st0{fill:#FFFFFF;stroke:#2C317D;stroke-miterlimit:10;}
	.st1{fill:#2C317D;}
</style>
<circle class="st0" cx="-357.4" cy="281.8" r="59.3"/>
<g>
	<path class="st1" d="M-362.9,249.9h-23.6c-2.2,0-4.1,1.9-4.1,4.1v17c0,2.2,1.9,4.1,4.1,4.1h10.2v2.8h-3c-0.9,0-1.6,0.7-1.6,1.6
		s0.8,1.6,1.6,1.6h9.5c0.9,0,1.6-0.7,1.6-1.6s-0.7-1.6-1.6-1.6h-3v-2.8h10.2c2.2,0,4.1-1.9,4.1-4.1v-17
		C-358.8,251.8-360.6,249.9-362.9,249.9z M-362.1,271c0,0.5-0.4,0.8-0.8,0.8h-23.6c-0.5,0-0.8-0.4-0.8-0.8v-17
		c0-0.5,0.4-0.8,0.8-0.8h23.6c0.5,0,0.8,0.4,0.8,0.8V271z"/>
	<path class="st1" d="M-328,284.8h-23.6c-2.2,0-4.1,1.9-4.1,4.1v17c0,2.2,1.9,4.1,4.1,4.1h10.2v2.8h-3c-0.9,0-1.6,0.7-1.6,1.6
		s0.7,1.6,1.6,1.6h9.5c0.9,0,1.6-0.7,1.6-1.6s-0.7-1.6-1.6-1.6h-3v-2.8h10.2c2.2,0,4.1-1.9,4.1-4.1v-17
		C-323.9,286.6-325.8,284.8-328,284.8z M-327.2,305.9c0,0.5-0.4,0.8-0.8,0.8h-23.6c-0.5,0-0.8-0.4-0.8-0.8v-17
		c0-0.5,0.4-0.8,0.8-0.8h23.6c0.5,0,0.8,0.4,0.8,0.8V305.9z"/>
	<path class="st1" d="M-339.8,260.8h-13c-0.9,0-1.6,0.7-1.6,1.6s0.7,1.6,1.6,1.6h11.2v11.6l-1.4-1.4c-0.7-0.7-1.8-0.7-2.3,0
		c-0.6,0.7-0.7,1.8,0,2.3l4.2,4.2c0.4,0.4,0.7,0.5,1.2,0.5c0.5,0,0.8-0.1,1.2-0.5l4.2-4.2c0.7-0.7,0.7-1.8,0-2.3
		c-0.7-0.6-1.8-0.7-2.3,0l-1.4,1.4v-13.3C-338.1,261.6-338.8,260.8-339.8,260.8z"/>
	<path class="st1" d="M-371.7,292.4c0.4,0.4,0.7,0.5,1.2,0.5c0.5,0,0.8-0.1,1.2-0.5c0.7-0.7,0.7-1.8,0-2.3l-4.2-4.2
		c-0.7-0.7-1.8-0.7-2.3,0l-4.2,4.2c-0.7,0.7-0.7,1.8,0,2.3c0.7,0.6,1.8,0.7,2.3,0l1.4-1.4v13.3c0,0.9,0.7,1.6,1.6,1.6h12.9
		c0.9,0,1.6-0.7,1.6-1.6s-0.7-1.6-1.6-1.6h-11.2v-11.6L-371.7,292.4z"/>
</g>
</svg>
