<?xml version="1.0" encoding="utf-8"?>
<!-- Generator: Adobe Illustrator 19.1.1, SVG Export Plug-In . SVG Version: 6.00 Build 0)  -->
<svg version="1.1" id="Calque_1" xmlns="http://www.w3.org/2000/svg" xmlns:xlink="http://www.w3.org/1999/xlink" x="0px" y="0px"
	 viewBox="-376 237.7 101.2 86.8" style="enable-background:new -376 237.7 101.2 86.8;" xml:space="preserve">
<style type="text/css">
	.st0{fill:none;stroke:#2C317D;stroke-miterlimit:10;}
	.st1{fill:#2C317D;stroke:#FFFFFF;}
</style>
<path class="st0" d="M-313.2,323.2h-24c-20.4,0-37-16.6-37-37v-10c0-20.4,16.6-37,37-37h24c20.4,0,37,16.6,37,37v10
	C-276.2,306.6-292.8,323.2-313.2,323.2z"/>
<path class="st1" d="M-311.5,249.8h-7.6c-8.6,0-14.1,5.7-14.1,14.5v6.7h-7.7c-0.7,0-1.2,0.5-1.2,1.2v9.7c0,0.7,0.5,1.2,1.2,1.2h7.7
	v24.4c0,0.7,0.5,1.2,1.2,1.2h10c0.7,0,1.2-0.5,1.2-1.2V283h9c0.7,0,1.2-0.5,1.2-1.2v-9.7c0-0.3-0.1-0.6-0.4-0.8
	c-0.2-0.2-0.5-0.4-0.8-0.4h-9v-5.7c0-2.7,0.6-4.1,4.2-4.1h5.1c0.7,0,1.2-0.5,1.2-1.2v-9C-310.3,250.3-310.9,249.8-311.5,249.8z"/>
</svg>
