<?xml version="1.0" encoding="utf-8"?>
<!-- Generator: Adobe Illustrator 19.1.1, SVG Export Plug-In . SVG Version: 6.00 Build 0)  -->
<svg version="1.1" id="Capa_1" xmlns="http://www.w3.org/2000/svg" xmlns:xlink="http://www.w3.org/1999/xlink" x="0px" y="0px"
	 viewBox="-411.3 219.8 121.2 121.5" style="enable-background:new -411.3 219.8 121.2 121.5;" xml:space="preserve">
<style type="text/css">
	.st0{fill:#FFFFFF;stroke:#2C317D;stroke-width:0.9186;stroke-miterlimit:10;}
	.st1{fill:#2C317D;}
	.st2{fill:none;}
</style>
<circle class="st0" cx="-350.8" cy="280.8" r="59.3"/>
<path class="st1" d="M-316.6,249.6c1.4,0.6,2,1.6,1.8,2.7c-0.2,1.1-1.1,1.9-2.4,1.9s-2.6,0-3.9,0c-19.9,0-39.8,0-59.8,0
	c-0.4,0-0.8,0-1.2,0c0,14,0,27.9,0,41.9c20.9,0,41.7,0,62.6,0c0-0.3,0-0.6,0-0.9c0-12.1,0-24.2,0-36.2c0-0.4,0-0.8,0.1-1.1
	c0.2-1.1,1.2-1.8,2.4-1.8c1.1,0.1,2,0.9,2.2,2c0,0.2,0,0.5,0,0.7c0,13.1,0,26.2,0,39.3c0,0.8-0.1,1.5-0.7,2.1
	c-0.5,0.5-1.2,0.6-1.9,0.6c-4.3,0-8.5,0-12.8,0c-17.8,0-35.7,0-53.5,0c-1.4,0-2.4-0.4-3-1.7c0-15.9,0-31.7,0-47.6
	c0.3-0.9,0.9-1.5,1.8-1.8C-362.1,249.6-339.4,249.6-316.6,249.6z"/>
<path class="st1" d="M-348.5,310.2c0,2.4,0,4.6,0,6.9c0,0.6,0,1.2,0,1.8c0,1.6-0.9,2.6-2.3,2.6s-2.2-1-2.3-2.6c0-2.5,0-4.9,0-7.4
	c0-0.4,0-0.7,0-1.3c-0.3,0.2-0.5,0.3-0.7,0.5c-4.1,3.3-8.3,6.7-12.4,10c-0.7,0.6-1.5,0.9-2.4,0.6c-1.6-0.5-2.2-2.5-1-3.7
	c0.2-0.2,0.4-0.4,0.6-0.6c5.5-4.4,10.9-8.8,16.4-13.2c1.3-1,2.2-1,3.5,0c5.5,4.5,11.1,8.9,16.6,13.4c0.8,0.6,1.2,1.4,1,2.5
	c-0.2,0.9-0.8,1.5-1.7,1.7c-0.8,0.2-1.5-0.1-2.2-0.6c-3.4-2.8-6.9-5.6-10.3-8.3C-346.5,311.7-347.5,311-348.5,310.2z"/>
<path class="st1" d="M-351.8,267.9c1.5-0.5,2.9-0.6,4.4-0.3c2.7,0.6,4.4,2.3,5.2,5c0.7,2.4,0.7,4.9-0.2,7.3
	c-1.4,3.8-5.6,5.7-9.4,4.2c-0.4-0.2-0.7-0.2-1.1,0.1c-1.4,1-3.4,0.1-3.5-1.6c-0.1-1-0.1-2.1-0.1-3.1c0-5.2,0-10.3,0-15.5
	c0-0.4,0-0.9,0.1-1.2c0.3-1,1.4-1.7,2.4-1.6c1.1,0.1,2,1,2.1,2.1C-351.8,264.8-351.8,266.3-351.8,267.9z M-346.1,276.2
	c-0.2-0.9-0.2-1.7-0.4-2.4c-0.3-1.1-1.1-1.7-2.2-1.8c-1.2-0.1-2.1,0.4-2.5,1.5c-0.6,1.7-0.6,3.5,0.1,5.2c0.4,0.9,1.2,1.2,2.2,1.2
	c0.9,0,1.8-0.3,2.2-1.2C-346.5,277.9-346.4,277-346.1,276.2z"/>
<path class="st1" d="M-364,282.7c-2.7,2.1-5.5,2.5-8.5,1c-1.6-0.8-2.6-2.2-3.2-3.8c-0.9-2.5-0.9-5-0.1-7.5c1.3-4,5.6-5.9,9.4-4.4
	c0.4,0.2,0.7,0.2,1.1-0.1c0.7-0.5,1.5-0.5,2.3-0.1s1.2,1.2,1.2,2.1c0,1.9,0,3.9,0,5.8c0,0.6,0.1,1.3,0.2,1.9
	c0.2,1.1,0.8,2.1,1.8,2.7c1.1,0.6,1.5,1.9,1,3c-0.6,1.1-1.9,1.6-3,1.1c-0.4-0.2-0.9-0.5-1.2-0.8C-363.3,283.3-363.5,283-364,282.7z
	 M-366.1,276.1c-0.1-0.7-0.2-1.5-0.4-2.2c-0.3-1.1-1.1-1.7-2.2-1.8c-1.2-0.1-2.1,0.4-2.5,1.5c-0.6,1.6-0.6,3.3,0,4.9
	c0.4,1.1,1.3,1.5,2.4,1.5c1.2-0.1,2-0.6,2.3-1.8C-366.4,277.5-366.3,276.8-366.1,276.1z"/>
<path class="st1" d="M-339.4,276.5c0.1-2.9,0.5-5.1,2.3-7c3.5-3.6,9.8-2.4,11.7,2.2c0.5,1.2,0,2.4-1.1,3c-1.1,0.5-2.4,0.1-3-1
	c-0.5-1-1.2-1.7-2.4-1.7c-1.3,0-2.2,0.6-2.5,1.9c-0.4,1.3-0.4,2.6-0.1,3.9c0.2,1,0.7,1.8,1.8,2c1.2,0.2,2.2-0.1,2.9-1.2
	c0.7-1.1,2.1-1.4,3.1-0.7c1.1,0.7,1.4,2,0.7,3.1c-0.7,1.1-1.6,2-2.8,2.6c-4.2,2.1-9.1-0.1-10.3-4.7
	C-339.3,278.1-339.4,277-339.4,276.5z"/>
<path class="st1" d="M-328.9,288.9c1.2,0,2.4,0,3.7,0c1.5,0,2.5,1,2.5,2.3s-1,2.3-2.5,2.3c-2.5,0-4.9,0-7.4,0c-1.5,0-2.5-1-2.5-2.3
	c0-1.4,1-2.3,2.5-2.3C-331.4,288.9-330.1,288.9-328.9,288.9z"/>
<line class="st2" x1="-350.6" y1="296.1" x2="-350.6" y2="311.7"/>
</svg>
