<?xml version="1.0" encoding="utf-8"?>
<!-- Generator: Adobe Illustrator 19.1.1, SVG Export Plug-In . SVG Version: 6.00 Build 0)  -->
<svg version="1.1" id="Capa_1" xmlns="http://www.w3.org/2000/svg" xmlns:xlink="http://www.w3.org/1999/xlink" x="0px" y="0px"
	 viewBox="-411.3 219.8 121 121.8" style="enable-background:new -411.3 219.8 121 121.8;" xml:space="preserve">
<style type="text/css">
	.st0{fill:#FFFFFF;stroke:#2C317D;stroke-width:0.9186;stroke-miterlimit:10;}
	.st1{fill:none;stroke:#2C317D;stroke-width:1.25;stroke-miterlimit:10;}
	.st2{fill:#2C317D;}
</style>
<circle class="st0" cx="-350.8" cy="280.8" r="59.3"/>
<g>
	<g>
		<path class="st1" d="M-330.2,285.2c-1.5,0-2.7,1.2-2.7,2.7v20.8c0,2.3-1.9,4.2-4.2,4.2h-38.2c-2.3,0-4.2-1.9-4.2-4.2v-38.2
			c0-2.3,1.9-4.2,4.2-4.2h20.8c1.5,0,2.7-1.2,2.7-2.7s-1.2-2.7-2.7-2.7h-20.8c-5.3,0-9.7,4.3-9.7,9.7v38.2c0,5.3,4.3,9.7,9.7,9.7
			h38.2c5.3,0,9.7-4.3,9.7-9.7V288C-327.4,286.5-328.6,285.2-330.2,285.2z"/>
	</g>
</g>
<g>
	<g>
		<g>
			<path class="st2" d="M-319.7,250.5h-20.8c-1.5,0-2.7,1.2-2.7,2.7s1.2,2.7,2.7,2.7h18.1V274c0,1.5,1.2,2.7,2.7,2.7
				s2.7-1.2,2.7-2.7v-20.8C-317,251.7-318.2,250.5-319.7,250.5z"/>
		</g>
	</g>
	<g>
		<g>
			<path class="st2" d="M-317.8,251.3c-1.1-1.1-2.8-1.1-3.9,0l-38.2,38.2c-1.1,1.1-1.1,2.8,0,3.9c0.5,0.5,1.2,0.8,1.9,0.8
				c0.7,0,1.4-0.3,1.9-0.8l38.2-38.2C-316.7,254.1-316.7,252.4-317.8,251.3z"/>
		</g>
	</g>
</g>
</svg>
