<?xml version="1.0" encoding="utf-8"?>
<!-- Generator: Adobe Illustrator 19.1.1, SVG Export Plug-In . SVG Version: 6.00 Build 0)  -->
<svg version="1.1" id="Capa_1" xmlns="http://www.w3.org/2000/svg" xmlns:xlink="http://www.w3.org/1999/xlink" x="0px" y="0px"
	 viewBox="-415 216.5 128.5 128.5" style="enable-background:new -415 216.5 128.5 128.5;" xml:space="preserve">
<style type="text/css">
	.st0{fill:#FFFFFF;stroke:#333366;stroke-width:0.9186;stroke-miterlimit:10;}
	.st1{fill:#333366;}
	.st2{fill:none;stroke:#333366;stroke-miterlimit:10;}
</style>
<circle class="st0" cx="-350.8" cy="280.8" r="59.3"/>
<g>
	<g>
		<path class="st1" d="M-317.5,277.5v-8.3l-9.9-1.7c-0.7-2.3-1.7-4.6-2.6-6.6l5.6-8.3l-5.9-5.9l-7.9,5.6c-2-1.3-4.3-2-6.6-2.6
			l-1.7-9.6h-8.3l-1.7,9.6c-2.3,0.7-4.6,1.3-6.6,2.6l-7.9-5.6l-5.9,5.9l5.6,7.9c-1.3,2-2,4.3-2.6,6.6l-9.6,1.7v8.3l9.6,1.7
			c0.7,2.3,1.7,4.6,2.6,6.6l-5.6,7.9l5.9,5.9l7.9-5.6c2,1.3,4.3,2,6.6,2.6l1.7,9.6h8.3l1.7-9.6c2.3-0.7,4.6-1.7,6.6-2.6l8.3,5.6
			l5.9-5.9l-5.6-7.9c1.3-2,2-4.3,2.6-6.6L-317.5,277.5z M-350.2,284.8c-6.3,0-11.6-5-11.6-11.6c0-6.3,5.3-11.6,11.6-11.6
			s11.6,5.3,11.6,11.6C-338.6,279.8-343.9,284.8-350.2,284.8z"/>
	</g>
	<path class="st2" d="M-317.1,300v11.9c0,1.7-1.3,3-3,3h-59.8c-1.7,0-3-1.3-3-3V300h-5.9v11.9c0,5,4,8.9,8.9,8.9h59.8
		c5,0,8.9-4,8.9-8.9V300H-317.1z"/>
</g>
</svg>
