<?xml version="1.0" encoding="utf-8"?>
<!-- Generator: Adobe Illustrator 19.1.1, SVG Export Plug-In . SVG Version: 6.00 Build 0)  -->
<svg version="1.1" id="Calque_1" xmlns="http://www.w3.org/2000/svg" xmlns:xlink="http://www.w3.org/1999/xlink" x="0px" y="0px"
	 viewBox="-375.5 238 100.4 86.5" style="enable-background:new -375.5 238 100.4 86.5;" xml:space="preserve">
<style type="text/css">
	.st0{fill:none;stroke:#2C317D;}
	.st1{fill:#2C317D;stroke:#FFFFFF;}
</style>
<path class="st0" d="M-313.2,323.2h-24c-20.4,0-37-16.6-37-37v-10c0-20.4,16.6-37,37-37h24c20.4,0,37,16.6,37,37v10
	C-276.2,306.7-292.7,323.2-313.2,323.2z"/>
<g>
	<path class="st1" d="M-321.8,273c5.9-8.4,20.5-6.8,24,1.8c0.9,2.2,1.3,4.8,1.4,7.2c0.2,7.4,0,14.8,0.1,22.2c0,2.2-0.7,2.9-2.8,2.7
		c-2.2-0.2-4.5-0.1-6.7,0c-1.9,0.1-2.6-0.5-2.6-2.5c0.1-6.2,0.1-12.4,0-18.5c0-1.3-0.2-2.7-0.6-3.8c-1.1-3-4.1-4.5-7.3-3.9
		c-2.8,0.5-5.2,3.2-5.2,6.2c-0.1,6.6-0.1,13.3,0,19.9c0,1.8-0.5,2.5-2.3,2.4c-2.6-0.1-5.3-0.1-7.9,0c-1.3,0-1.9-0.4-1.9-1.8
		c0-11.5,0.1-23,0-34.5c0-1.6,0.6-2,2-2c2.5,0.1,5,0.1,7.4,0c2-0.1,2.6,0.7,2.4,2.5C-321.9,271.5-321.8,272-321.8,273z"/>
	<path class="st1" d="M-341.1,287.7c0,5.4-0.1,10.8,0,16.2c0,2.1-0.7,3-2.8,2.9c-2.2-0.1-4.3-0.1-6.5,0c-1.8,0-2.7-0.7-2.7-2.6
		c0-11,0-22.1,0-33.1c0-1.8,0.8-2.7,2.7-2.6c2.2,0.1,4.3,0.1,6.5,0c2.1-0.1,2.9,0.7,2.9,2.8C-341.2,276.8-341.1,282.2-341.1,287.7z"
		/>
	<path class="st1" d="M-347,249.5c3.9,0,6.9,2.9,6.9,6.8s-3,7-6.9,7c-3.8,0.1-7.1-3.2-7-7.1C-354,252.4-351,249.4-347,249.5z"/>
</g>
</svg>
