<?xml version="1.0" encoding="utf-8"?>
<!-- Generator: Adobe Illustrator 19.1.1, SVG Export Plug-In . SVG Version: 6.00 Build 0)  -->
<svg version="1.1" id="Calque_1" xmlns="http://www.w3.org/2000/svg" xmlns:xlink="http://www.w3.org/1999/xlink" x="0px" y="0px"
	 viewBox="-368 236.4 91 89.6" style="enable-background:new -368 236.4 91 89.6;" xml:space="preserve">
<style type="text/css">
	.st0{fill:#2C317D;stroke:#FFFFFF;}
</style>
<g>
	<path class="st0" d="M-318.3,273.3c8.8-12.5,30.6-10.2,35.9,2.7c1.3,3.3,1.9,7.2,2.1,10.8c0.3,11.1,0,22.1,0.1,33.2
		c0,3.3-1,4.3-4.2,4c-3.3-0.3-6.7-0.1-10,0c-2.8,0.1-3.9-0.7-3.9-3.7c0.1-9.3,0.1-18.5,0-27.6c0-1.9-0.3-4-0.9-5.7
		c-1.6-4.5-6.1-6.7-10.9-5.8c-4.2,0.7-7.8,4.8-7.8,9.3c-0.1,9.9-0.1,19.9,0,29.7c0,2.7-0.7,3.7-3.4,3.6c-3.9-0.1-7.9-0.1-11.8,0
		c-1.9,0-2.8-0.6-2.8-2.7c0-17.2,0.1-34.4,0-51.5c0-2.4,0.9-3,3-3c3.7,0.1,7.5,0.1,11.1,0c3-0.1,3.9,1,3.6,3.7
		C-318.5,271.1-318.3,271.8-318.3,273.3z"/>
	<path class="st0" d="M-347.2,295.3c0,8.1-0.1,16.1,0,24.2c0,3.1-1,4.5-4.2,4.3c-3.3-0.1-6.4-0.1-9.7,0c-2.7,0-4-1-4-3.9
		c0-16.4,0-33,0-49.5c0-2.7,1.2-4,4-3.9c3.3,0.1,6.4,0.1,9.7,0c3.1-0.1,4.3,1,4.3,4.2C-347.3,279-347.2,287.1-347.2,295.3z"/>
	<path class="st0" d="M-356,238.2c5.8,0,10.3,4.3,10.3,10.2c0,5.8-4.5,10.5-10.3,10.5c-5.7,0.1-10.6-4.8-10.5-10.6
		C-366.5,242.6-362,238.1-356,238.2z"/>
</g>
</svg>
