<?xml version="1.0" encoding="utf-8"?>
<!-- Generator: Adobe Illustrator 19.1.1, SVG Export Plug-In . SVG Version: 6.00 Build 0)  -->
<svg version="1.1" id="Capa_1" xmlns="http://www.w3.org/2000/svg" xmlns:xlink="http://www.w3.org/1999/xlink" x="0px" y="0px"
	 viewBox="-411.7 219.8 121.3 121.8" style="enable-background:new -411.7 219.8 121.3 121.8;" xml:space="preserve">
<style type="text/css">
	.st0{fill:none;stroke:#2C317D;stroke-miterlimit:10;}
	.st1{fill:#2C317D;}
	.st2{opacity:0.9;}
</style>
<circle class="st0" cx="-350.8" cy="280.8" r="59.3"/>
<g>
	<g>
		<g>
			<path class="st1" d="M-315.2,266.7h-25.1l-4.9-14.5c-0.1-2.8-2.5-5-5.3-5s-5.2,2.2-5.3,5l-4.9,14.5h-25.1c-3,0-5.4,2.4-5.4,5.4
				v34.5c0,3,2.4,5.4,5.4,5.4h5.8c0.8,0,1.5-0.7,1.5-1.5s-0.7-1.5-1.5-1.5h-5.8c-1.4,0-2.5-1.1-2.5-2.5V272c0-1.4,1.1-2.5,2.5-2.5
				h26.1l0,0l0,0h18.3l0,0l0,0h26.1c1.4,0,2.5,1.1,2.5,2.5v34.5c0,1.4-1.1,2.5-2.5,2.5h-60c-0.8,0-1.5,0.7-1.5,1.5s0.7,1.5,1.5,1.5
				h60c3,0,5.4-2.4,5.4-5.4v-34.5C-309.8,269.1-312.2,266.7-315.2,266.7z M-350.4,250.1c1.3,0,2.4,1.1,2.4,2.4s-1.1,2.4-2.4,2.4
				s-2.4-1.1-2.4-2.4S-351.7,250.1-350.4,250.1z M-357.5,266.7l3.5-10.3c0.9,0.9,2.2,1.4,3.6,1.4s2.6-0.5,3.6-1.4l3.5,10.3H-357.5z"
				/>
		</g>
	</g>
	<g class="st2">
		<path class="st1" d="M-371,294.8h-1.4l-1.2-3.1h-4.6l-1.1,3.1h-1.4l4.2-10.9h1.3L-371,294.8z M-375.2,282.9h-1l-2-2.5h1.3
			L-375.2,282.9z M-374,290.6l-1.7-4.7c-0.1-0.2-0.1-0.4-0.2-0.7l0,0c-0.1,0.3-0.1,0.6-0.2,0.7l-1.7,4.7H-374z"/>
		<path class="st1" d="M-359.5,294.8h-5.7v-10.9h1.3v9.8h4.4L-359.5,294.8L-359.5,294.8z"/>
		<path class="st1" d="M-353.9,295c-1.5,0-2.8-0.5-3.7-1.5c-0.9-1-1.4-2.3-1.4-4c0-1.8,0.5-3.2,1.4-4.2s2.2-1.6,3.9-1.6
			c1.5,0,2.7,0.5,3.6,1.5s1.4,2.3,1.4,4c0,1.8-0.5,3.2-1.4,4.2C-351.1,294.5-352.4,295-353.9,295z M-353.8,284.9
			c-1.1,0-2.1,0.4-2.8,1.2c-0.7,0.8-1.1,1.9-1.1,3.3c0,1.3,0.3,2.4,1,3.2c0.7,0.8,1.6,1.2,2.7,1.2c1.2,0,2.1-0.4,2.8-1.2
			c0.7-0.8,1-1.9,1-3.3s-0.3-2.6-1-3.3C-351.7,285.3-352.7,284.9-353.8,284.9z"/>
		<path class="st1" d="M-338.6,290.4c0,3.1-1.4,4.6-4.2,4.6c-2.7,0-4-1.5-4-4.4v-6.7h1.3v6.6c0,2.2,0.9,3.4,2.8,3.4
			c1.8,0,2.7-1.1,2.7-3.2v-6.7h1.3v6.4H-338.6z"/>
		<path class="st1" d="M-330.1,294.8h-5.8v-10.9h5.5v1.2h-4.3v3.6h3.9v1.2h-3.9v3.8h4.5L-330.1,294.8L-330.1,294.8z"/>
		<path class="st1" d="M-320.1,294.8h-1.5l-1.8-3.1c-0.2-0.3-0.3-0.5-0.5-0.7s-0.3-0.4-0.5-0.5s-0.3-0.2-0.5-0.3
			c-0.2-0.1-0.4-0.1-0.6-0.1h-1.1v4.6h-1.3v-10.9h3.3c0.5,0,0.9,0.1,1.3,0.2s0.8,0.3,1.1,0.5c0.3,0.2,0.5,0.5,0.7,0.9
			s0.3,0.8,0.3,1.3c0,0.4-0.1,0.7-0.2,1s-0.3,0.6-0.5,0.8c-0.2,0.2-0.5,0.5-0.8,0.6c-0.3,0.2-0.6,0.3-1,0.4l0,0
			c0.2,0.1,0.3,0.2,0.5,0.3s0.3,0.2,0.4,0.4s0.2,0.3,0.4,0.5c0.1,0.2,0.3,0.4,0.4,0.6L-320.1,294.8z M-326.7,285v4h1.7
			c0.3,0,0.6,0,0.9-0.1s0.5-0.2,0.7-0.4c0.2-0.2,0.4-0.4,0.5-0.7c0.1-0.3,0.2-0.6,0.2-0.9c0-0.6-0.2-1-0.6-1.4s-0.9-0.5-1.6-0.5
			H-326.7z"/>
	</g>
</g>
</svg>
