<?xml version="1.0" encoding="utf-8"?>
<!-- Generator: Adobe Illustrator 19.1.1, SVG Export Plug-In . SVG Version: 6.00 Build 0)  -->
<svg version="1.1" id="Calque_1" xmlns="http://www.w3.org/2000/svg" xmlns:xlink="http://www.w3.org/1999/xlink" x="0px" y="0px"
	 viewBox="-461 267.4 35.8 27.6" style="enable-background:new -461 267.4 35.8 27.6;" xml:space="preserve">
<style type="text/css">
	.st0{fill:#FFFFFF;}
</style>
<path class="st0" d="M-427.7,291l-9.8-9.8l9.8-9.9V291z M-457.1,292.5l9.9-9.9l3.5,3.4c0.4,0.4,1,0.4,1.4,0l3.4-3.4l9.8,9.8h-28
	L-457.1,292.5L-457.1,292.5z M-458.6,291v-19.7l9.9,9.8L-458.6,291z M-429.1,269.9l-14,13.9l-14-13.9H-429.1z M-428.7,267.8h-28.8
	c-1.7,0-3.1,1.4-3.1,3.1v20.5c0,1.7,1.4,3.1,3.1,3.1h28.8c1.7,0,3.1-1.4,3.1-3.1v-20.5C-425.6,269.2-427,267.8-428.7,267.8z"/>
</svg>
