<?xml version="1.0" encoding="utf-8"?>
<!-- Generator: Adobe Illustrator 19.1.1, SVG Export Plug-In . SVG Version: 6.00 Build 0)  -->
<svg version="1.1" id="Layer_1" xmlns="http://www.w3.org/2000/svg" xmlns:xlink="http://www.w3.org/1999/xlink" x="0px" y="0px"
	 viewBox="-223 25 512 512" style="enable-background:new -223 25 512 512;" xml:space="preserve">
<g>
	<path d="M205.4,367.5c-10.4-10.4-27.5-9.6-36.8,2.4c-14.8,19.2-29.6,34-40.8,36.8C25.8,431.4-116.3,289.3-91.6,187
		c2.8-11.2,17.6-26,36.8-40.8c11.6-9.1,12.7-26.4,2.4-36.8L-114,48c-8.8-8.8-23.2-9.6-33.2-1.6C-182.3,76-217,111.1-217,136.3
		C-217,276,39,532,178.7,532c25.2,0,60.3-34.7,89.8-70.2c8-9.6,7.2-23.9-1.6-33.2L205.4,367.5z"/>
	<path d="M-65.6,68.4c29.6-12.7,61.5-19.6,94.3-19.6c131,0,237.6,106.6,237.6,237.6c0,32.4-6.8,64.7-19.6,94.3l15.2,15.2
		c16-34,24.3-71.5,24.3-109.5c0-142.1-115.4-257.5-257.5-257.5c-37.9,0-75.5,8.4-109.5,24.3L-65.6,68.4z"/>
	<path d="M68.8,296.5l-71.7,0c-7.1,0-12.8-5.7-12.8-12.8c0-7.8,4-19.7,33.6-48.1c13.2-12.7,34.7-26.2,34.4-39.4
		c-0.3-11-8.9-19.9-19.9-19.9c-11,0-19.9,8.9-19.9,19.9c0,7.1-5.7,12.8-12.8,12.8c-7.1,0-12.8-5.7-12.8-12.8
		c0-25.1,20.4-45.5,45.5-45.5c25.1,0,45.5,20.4,45.5,45.5c0,11.5-4.3,22.6-12.2,31c-0.4,0.4-41.7,35.4-46.3,43.6l49.4,0
		c7.1,0,12.8,5.8,12.8,12.8C81.5,290.8,75.8,296.5,68.8,296.5z"/>
	<path d="M121,244.1l27.3,0l0-39.5L121,244.1z M161.2,298.3c-7.1,0-12.8-5.7-12.8-12.8l0-15.8l-51.7,0c-4.7,0-9.1-2.7-11.3-6.9
		c-2.3-4.2-1.8-9.3,0.8-13.2l64.6-93.3c3.2-4.6,9-6.6,14.4-4.9c5.3,1.6,8.9,6.6,8.9,12.2l0,80.5l14,0c7.1,0,12.8,5.7,12.8,12.8
		c0,7.1-5.8,12.8-12.8,12.8h-14v15.8C173.9,292.6,168.2,298.3,161.2,298.3z"/>
</g>
</svg>
