<?xml version="1.0" encoding="utf-8"?>
<!-- Generator: Adobe Illustrator 19.1.1, SVG Export Plug-In . SVG Version: 6.00 Build 0)  -->
<svg version="1.1" id="Capa_1" xmlns="http://www.w3.org/2000/svg" xmlns:xlink="http://www.w3.org/1999/xlink" x="0px" y="0px"
	 viewBox="-411.8 219.8 121.8 122.3" style="enable-background:new -411.8 219.8 121.8 122.3;" xml:space="preserve">
<style type="text/css">
	.st0{fill:#FFFFFF;stroke:#2C317D;stroke-miterlimit:10;}
	.st1{fill:none;stroke:#2C317D;stroke-width:2.8864;stroke-miterlimit:10;}
	.st2{fill:#2C317D;}
</style>
<circle class="st0" cx="-350.8" cy="280.8" r="59.3"/>
<g>
	<path class="st1" d="M-325.3,295.3c-1.6-1.6-4.2-1.5-5.6,0.4c-2.3,2.9-4.5,5.2-6.2,5.6c-15.6,3.8-37.4-18-33.6-33.6
		c0.4-1.7,2.7-4,5.6-6.2c1.8-1.4,1.9-4,0.4-5.6l-9.4-9.4c-1.4-1.4-3.5-1.5-5.1-0.3c-5.4,4.5-10.7,9.9-10.7,13.8
		c0,21.4,39.2,60.5,60.5,60.5c3.8,0,9.2-5.3,13.7-10.7c1.2-1.5,1.1-3.7-0.3-5.1L-325.3,295.3z"/>
	<path class="st2" d="M-366.7,249.5c4.5-1.9,9.4-3,14.4-3c20,0,36.3,16.3,36.3,36.3c0,4.9-1,9.9-3,14.4l2.3,2.3
		c2.5-5.2,3.7-10.9,3.7-16.7c0-21.7-17.7-39.4-39.4-39.4c-5.8,0-11.5,1.3-16.7,3.7L-366.7,249.5z"/>
	<path class="st2" d="M-346.2,284.4h-11c-1.1,0-2-0.9-2-2c0-1.2,0.6-3,5.1-7.4c2-1.9,5.3-4,5.3-6c0-1.7-1.4-3-3-3s-3,1.4-3,3
		c0,1.1-0.9,2-2,2c-1.1,0-2-0.9-2-2c0-3.8,3.1-7,7-7c3.8,0,7,3.1,7,7c0,1.8-0.7,3.5-1.9,4.7c-0.1,0.1-6.4,5.4-7.1,6.7h7.6
		c1.1,0,2,0.9,2,2C-344.2,283.6-345.1,284.4-346.2,284.4z"/>
	<path class="st2" d="M-338.2,276.4h4.2v-6L-338.2,276.4z M-332,284.7c-1.1,0-2-0.9-2-2v-2.4h-7.9c-0.7,0-1.4-0.4-1.7-1.1
		c-0.3-0.6-0.3-1.4,0.1-2l9.9-14.3c0.5-0.7,1.4-1,2.2-0.8c0.8,0.3,1.4,1,1.4,1.9v12.3h2.1c1.1,0,2,0.9,2,2c0,1.1-0.9,2-2,2h-2.1v2.4
		C-330.1,283.8-331,284.7-332,284.7z"/>
</g>
</svg>
