<?xml version="1.0" encoding="utf-8"?>
<!-- Generator: Adobe Illustrator 19.1.1, SVG Export Plug-In . SVG Version: 6.00 Build 0)  -->
<svg version="1.1" id="Capa_1" xmlns="http://www.w3.org/2000/svg" xmlns:xlink="http://www.w3.org/1999/xlink" x="0px" y="0px"
	 viewBox="-223 216.5 128.5 128.5" style="enable-background:new -223 216.5 128.5 128.5;" xml:space="preserve">
<style type="text/css">
	.st0{fill:#FFFFFF;stroke:#333366;stroke-width:0.9186;stroke-miterlimit:10;}
	.st1{fill:#333366;}
</style>
<circle class="st0" cx="-158" cy="281.1" r="59.3"/>
<g>
	<path class="st1" d="M-157.8,270.4v-14.5c3.4-0.9,5.9-4,5.9-7.6c0-4.3-3.5-7.9-7.9-7.9c-4.3,0-7.9,3.5-7.9,7.9
		c0,3.7,2.5,6.7,5.9,7.6v14.5c-4.1,0.6-7.6,3.2-9.5,6.7l-8.6-6.7c0.2-0.6,0.3-1.2,0.3-1.9c0-3.1-2.5-5.7-5.7-5.7s-5.7,2.5-5.7,5.7
		c0,3.1,2.5,5.7,5.7,5.7c1,0,2-0.3,2.8-0.8l9.7,7.6c-0.1,0.8-0.2,1.6-0.2,2.4c0,2.9,1,5.6,2.6,7.8l-11,11c-0.8,0.8-0.8,2,0,2.8
		c0.4,0.4,0.9,0.6,1.4,0.6s1-0.2,1.4-0.6l11-11c1.7,1.2,3.7,2.1,5.8,2.4v14.5c-2.2,0.8-3.7,2.9-3.7,5.3c0,3.1,2.5,5.7,5.7,5.7
		c3.1,0,5.7-2.5,5.7-5.7c0-2.4-1.5-4.5-3.7-5.3v-14.5c6.3-0.9,11.1-6.4,11.1-12.9C-146.7,276.7-151.5,271.3-157.8,270.4z
		 M-185.2,270.2c-1,0-1.8-0.8-1.8-1.8s0.8-1.8,1.8-1.8s1.8,0.8,1.8,1.8S-184.2,270.2-185.2,270.2z M-163.7,248.2c0-2.2,1.8-4,4-4
		c2.2,0,4,1.8,4,4c0,2.2-1.8,4-4,4C-162,252.2-163.7,250.4-163.7,248.2z M-159.8,317.9c-1,0-1.8-0.8-1.8-1.8c0-0.8,0.6-1.6,1.4-1.7
		c0.1,0,0.2,0,0.4,0s0.2,0,0.4,0c0.8,0.2,1.4,0.9,1.4,1.7C-158,317.1-158.8,317.9-159.8,317.9z M-159.8,292.5
		c-5.1,0-9.2-4.1-9.2-9.2c0-0.9,0.1-1.8,0.4-2.6c0,0,0-0.1,0-0.1c1.2-3.8,4.7-6.5,8.8-6.5c5.1,0,9.2,4.1,9.2,9.2
		C-150.6,288.4-154.7,292.5-159.8,292.5z"/>
	<path class="st1" d="M-121.1,264.3c-4.3,0-7.9,3.5-7.9,7.9c0,0.2,0,0.4,0,0.6l-14.1,4.8c-1,0.3-1.6,1.5-1.2,2.5
		c0.3,0.8,1,1.3,1.9,1.3c0.2,0,0.4,0,0.6-0.1l14.1-4.8c1.4,2.1,3.8,3.6,6.6,3.6c4.3,0,7.9-3.5,7.9-7.9
		C-113.2,267.8-116.7,264.3-121.1,264.3z M-121.1,276.1c-2.2,0-4-1.8-4-4s1.8-4,4-4c2.2,0,4,1.8,4,4
		C-117.1,274.3-118.9,276.1-121.1,276.1z"/>
	<path class="st1" d="M-188.9,304.6c-4.3,0-7.9,3.5-7.9,7.9c0,4.3,3.5,7.9,7.9,7.9c4.3,0,7.9-3.5,7.9-7.9
		C-181.1,308.1-184.6,304.6-188.9,304.6z M-188.9,316.4c-2.2,0-4-1.8-4-4c0-2.2,1.8-4,4-4c2.2,0,4,1.8,4,4
		C-185,314.6-186.8,316.4-188.9,316.4z"/>
</g>
</svg>
