<?xml version="1.0" encoding="utf-8"?>
<!-- Generator: Adobe Illustrator 19.1.1, SVG Export Plug-In . SVG Version: 6.00 Build 0)  -->
<svg version="1.1" id="Calque_1" xmlns="http://www.w3.org/2000/svg" xmlns:xlink="http://www.w3.org/1999/xlink" x="0px" y="0px"
	 viewBox="-210 12.3 537.7 537.7" style="enable-background:new -210 12.3 537.7 537.7;" xml:space="preserve">
<style type="text/css">
	.st0{fill:#2C317D;}
</style>
<g>
	<path class="st0" d="M60,18.8c5.9,3.3,12,6.3,17.6,10c30.2,20.4,61.6,38.3,96.1,50.5c23.4,8.3,47.4,13.3,71.9,15.9
		c4.8,0.5,9.8,1.2,14.6,2c14.5,2.7,21.5,10.7,21.7,25.6c0.2,12.9,0.1,25.9,0.1,38.7c-0.2,46.9-0.8,93.8-0.8,140.6
		c0,43.8-15.2,81.8-41.3,116.3c-31.6,41.6-72.4,71.8-118.6,95.2c-16.8,8.5-34.2,15.7-51.4,23.5c-9.1,4.1-18.1,4.3-27.6,0.5
		c-40.5-15.9-78.9-35.5-113.4-62.5c-30.2-23.6-57-50.3-75.6-84.4c-16.2-29.8-23.4-61.8-23.5-95.4c-0.2-55.9-0.4-111.8-0.5-167.7
		c0-22.2,6.7-29.8,28.9-31.4C-92.9,92.9-48,77.2-5.9,53.3c13.8-7.8,27.2-16.9,40.7-25.2c5.4-3.3,11.2-6.3,16.8-9.4
		C54.5,18.8,57.2,18.8,60,18.8z M-140.8,125.7c0,1.8,0,2.7,0,3.8c0.1,55.7,0,111.5,0.5,167.2c0.1,10.9,1.3,21.7,3.2,32.4
		c6.5,37.9,26.1,68.7,52.8,95.5c39.3,39.6,86.6,66.2,138,86.1c1.5,0.6,3.8,0.5,5.2-0.2c22.8-10.9,46.2-20.7,68.3-32.9
		c38.9-21.6,72.3-50.1,97.3-87.4c17.4-25.9,27.4-54,27.4-85.4c0.1-58.1,0.6-116.2,0.8-174.3c0-1.4-0.1-3-0.4-5.2
		c-73.6-4.5-137.3-34.4-196.5-75.8C-3.6,90.5-67,120.8-140.8,125.7z"/>
	<path class="st0" d="M27.3,322.7c2.4-3,3.4-4.6,4.8-6.1c27.3-27.3,54.4-54.6,81.7-81.7c9.4-9.4,22.9-6.5,26,5.6
		c1.4,5.4-0.5,10-4.3,13.9c-4.1,4.3-8.4,8.4-12.6,12.6c-27.8,27.8-55.5,55.5-83.3,83.3c-8.9,8.9-16.1,8.7-25-0.1
		C2,337.5-10.5,324.8-23.2,312.3c-4.3-4.3-6.8-9-5.4-15c2.6-11.5,16.1-15.4,24.8-7c9.2,8.9,18.1,17.9,27,27
		C24.6,318.6,25.4,320.1,27.3,322.7z"/>
</g>
</svg>
