<?xml version="1.0" encoding="utf-8"?>
<!-- Generator: Adobe Illustrator 19.1.1, SVG Export Plug-In . SVG Version: 6.00 Build 0)  -->
<svg version="1.1" id="Calque_1" xmlns="http://www.w3.org/2000/svg" xmlns:xlink="http://www.w3.org/1999/xlink" x="0px" y="0px"
	 viewBox="-461 262.9 35.8 36.1" style="enable-background:new -461 262.9 35.8 36.1;" xml:space="preserve">
<style type="text/css">
	.st0{fill:#FFFFFF;stroke:#000000;stroke-width:0.25;stroke-miterlimit:10;}
</style>
<path class="st0" d="M-425.6,291.3c0.1,0.6-0.1,1.1-0.5,1.5l-4.9,4.9c-0.2,0.2-0.5,0.5-0.9,0.6c-0.4,0.2-0.7,0.3-1.1,0.3
	c0,0-0.1,0-0.2,0c-0.1,0-0.3,0-0.5,0c-0.5,0-1.2-0.1-2.3-0.2c-1.1-0.2-2.3-0.6-3.9-1.2c-1.5-0.6-3.2-1.6-5.2-2.8
	c-1.9-1.3-4-3-6.2-5.2c-1.7-1.7-3.2-3.3-4.3-4.9s-2.1-3-2.7-4.3c-0.7-1.3-1.2-2.5-1.6-3.6c-0.3-1.1-0.6-2-0.7-2.8
	c0.1-0.7,0-1.3,0-1.8c0-0.4,0-0.7,0-0.7c0-0.3,0.2-0.7,0.3-1.1c0.3-0.3,0.5-0.6,0.7-0.8l4.9-4.9c0.4-0.4,0.8-0.6,1.3-0.6
	c0.3,0,0.6,0.1,0.9,0.3c0.3,0.2,0.4,0.4,0.5,0.7l4,7.5c0.2,0.4,0.3,0.8,0.2,1.3c-0.1,0.5-0.3,0.9-0.6,1.2l-1.8,1.8
	c0,0.1-0.1,0.1-0.1,0.2c0,0.1-0.1,0.2-0.1,0.3c0.1,0.5,0.3,1.1,0.7,1.8c0.3,0.6,0.8,1.3,1.4,2.2c0.6,0.9,1.5,1.8,2.6,2.9
	c1.1,1.1,2.1,2,3,2.7c0.9,0.6,1.6,1.1,2.2,1.4c0.6,0.3,1,0.5,1.3,0.5l0.5,0.1c0,0,0.1,0,0.2-0.1c0.1,0,0.2-0.1,0.2-0.1l2.1-2.1
	c0.4-0.4,1-0.6,1.6-0.6c0.4,0,0.8,0.1,1,0.2l0,0l7.2,4.2C-426,290.4-425.7,290.8-425.6,291.3z"/>
</svg>
