<?xml version="1.0" encoding="utf-8"?>
<!-- Generator: Adobe Illustrator 19.1.1, SVG Export Plug-In . SVG Version: 6.00 Build 0)  -->
<svg version="1.1" id="Calque_1" xmlns="http://www.w3.org/2000/svg" xmlns:xlink="http://www.w3.org/1999/xlink" x="0px" y="0px"
	 viewBox="-372.3 243.7 93.7 74.7" style="enable-background:new -372.3 243.7 93.7 74.7;" xml:space="preserve">
<style type="text/css">
	.st0{fill:#2C317D;stroke:#FFFFFF;stroke-miterlimit:10;}
</style>
<path class="st0" d="M-368.9,309.3c8.1,5.1,17.6,8.1,27.8,8.1c28.7,0,52.1-23.3,52.1-52.1c0-0.6,0-1.4,0-2.1c1-0.8,7.5-5.9,9-9.2
	c0,0-5.2,2.2-10.3,2.7l0,0l0,0c0.5-0.3,7-4.8,7.9-10.2c0,0-3.7,2.1-8.9,3.7c-0.8,0.3-1.7,0.6-2.7,0.8c-3.3-3.5-8.1-5.7-13.3-5.7
	c-10,0-18.3,8.1-18.3,18.3c0,1.4,0.2,2.9,0.5,4.1c-1.4-0.2-22.9-1.3-37.5-18.9c0,0-8.7,11.9,5.2,24.1c0,0-4.3-0.2-7.9-2.4
	c0,0-1.3,14.4,14.4,18.1c0,0-3.2,1.3-8.1,0.3c0,0,2.7,11.7,16.8,12.9C-342.1,301.7-353.2,311.7-368.9,309.3L-368.9,309.3z"/>
</svg>
