<?xml version="1.0" encoding="utf-8"?>
<!-- Generator: Adobe Illustrator 19.1.1, SVG Export Plug-In . SVG Version: 6.00 Build 0)  -->
<svg version="1.1" id="Calque_1" xmlns="http://www.w3.org/2000/svg" xmlns:xlink="http://www.w3.org/1999/xlink" x="0px" y="0px"
	 viewBox="-435 234.9 87.9 92.1" style="enable-background:new -435 234.9 87.9 92.1;" xml:space="preserve">
<style type="text/css">
	.st0{fill:#2C317D;}
</style>
<path class="st0" d="M-367.1,279.3c-0.1-3.7-0.6-7.3-1.3-10.7h9.4c1.4,3.3,2.3,6.9,2.6,10.7H-367.1z M-359,295.3h-9.4
	c0.7-3.4,1.2-7,1.3-10.7h10.6C-356.8,288.4-357.6,292-359,295.3z M-376.1,313.2c2.6-3.4,4.7-7.7,6.3-12.6h8
	C-365.3,306-370.2,310.4-376.1,313.2z M-388.4,316.3v-15.7h13.1C-378.2,308.9-382.9,314.8-388.4,316.3z M-388.4,284.6h15.9
	c-0.2,3.8-0.6,7.3-1.4,10.7h-14.5V284.6z M-388.4,268.6h14.6c0.8,3.3,1.2,6.9,1.4,10.7h-16V268.6z M-388.4,247.6
	c5.5,1.5,10.2,7.3,13.1,15.7h-13.1V247.6z M-361.8,263.3h-8c-1.6-4.9-3.7-9.2-6.3-12.6C-370.2,253.5-365.3,257.9-361.8,263.3z
	 M-393.7,263.3h-13.1c2.9-8.3,7.6-14.2,13.1-15.7C-393.7,247.6-393.7,263.3-393.7,263.3z M-393.7,279.3h-15.9
	c0.2-3.8,0.6-7.3,1.4-10.7h14.6v10.7H-393.7z M-393.7,295.3h-14.6c-0.8-3.3-1.2-6.9-1.4-10.7h15.9L-393.7,295.3L-393.7,295.3z
	 M-393.7,316.3c-5.5-1.5-10.2-7.4-13.1-15.7h13.1V316.3z M-420.3,300.6h8c1.6,4.9,3.7,9.2,6.3,12.6
	C-411.8,310.4-416.8,306-420.3,300.6z M-425.6,284.6h10.6c0.1,3.7,0.6,7.3,1.3,10.7h-9.3C-424.4,292-425.3,288.4-425.6,284.6z
	 M-423,268.6h9.4c-0.7,3.4-1.2,6.9-1.3,10.7h-10.7C-425.3,275.5-424.4,271.9-423,268.6z M-406,250.7c-2.6,3.4-4.7,7.7-6.3,12.6h-8
	C-416.8,257.9-411.8,253.5-406,250.7z M-351.1,279.3c-1.3-20-17.3-35.9-37.2-37.2v-0.2h-2.7h-2.7v0.1c-20,1.4-35.9,17.3-37.2,37.3
	h-0.1v2.6v2.7h0.1c1.3,20,17.3,35.9,37.2,37.2v0.1h2.7h2.7l0,0c20-1.3,35.9-17.3,37.2-37.2h0.1v-2.8L-351.1,279.3L-351.1,279.3z"/>
</svg>
