<?xml version="1.0" encoding="utf-8"?>
<!-- Generator: Adobe Illustrator 19.1.1, SVG Export Plug-In . SVG Version: 6.00 Build 0)  -->
<svg version="1.1" id="Layer_1" xmlns="http://www.w3.org/2000/svg" xmlns:xlink="http://www.w3.org/1999/xlink" x="0px" y="0px"
	 viewBox="-419 220.4 120.6 120.6" style="enable-background:new -419 220.4 120.6 120.6;" xml:space="preserve">
<style type="text/css">
	.st0{fill:#FFFFFF;stroke:#2C317D;stroke-width:0.9186;stroke-miterlimit:10;}
	.st1{fill:#2E386C;}
</style>
<circle class="st0" cx="-358.7" cy="280.7" r="59.3"/>
<g>
	<path class="st1" d="M-358.2,249c0.7,0.4,1.5,0.8,2.1,1.2c3.7,2.5,7.5,4.7,11.7,6.1c2.8,1,5.7,1.6,8.7,1.9c0.6,0.1,1.2,0.1,1.8,0.2
		c1.8,0.3,2.6,1.3,2.6,3.1c0,1.6,0,3.1,0,4.7c0,5.7-0.1,11.4-0.1,17.1c0,5.3-1.9,10-5,14.1c-3.8,5.1-8.8,8.7-14.4,11.6
		c-2,1-4.2,1.9-6.2,2.9c-1.1,0.5-2.2,0.5-3.4,0.1c-4.9-1.9-9.6-4.3-13.8-7.6c-3.7-2.9-6.9-6.1-9.2-10.3c-2-3.6-2.8-7.5-2.9-11.6
		c0-6.8,0-13.6-0.1-20.4c0-2.7,0.8-3.6,3.5-3.8c5.9-0.4,11.4-2.3,16.5-5.2c1.7-1,3.3-2,4.9-3.1c0.7-0.4,1.4-0.8,2-1.1
		C-358.9,249-358.5,249-358.2,249z M-382.6,262c0,0.2,0,0.3,0,0.5c0,6.8,0,13.5,0.1,20.3c0,1.3,0.2,2.6,0.4,3.9
		c0.8,4.6,3.2,8.4,6.4,11.6c4.8,4.8,10.5,8.1,16.8,10.5c0.2,0.1,0.5,0.1,0.6,0c2.8-1.3,5.6-2.5,8.3-4c4.7-2.6,8.8-6.1,11.8-10.6
		c2.1-3.1,3.3-6.6,3.3-10.4c0-7.1,0.1-14.1,0.1-21.2c0-0.2,0-0.4,0-0.6c-8.9-0.6-16.7-4.2-23.9-9.2
		C-365.9,257.7-373.7,261.4-382.6,262z"/>
	<path class="st1" d="M-362.2,285.9c0.3-0.4,0.4-0.6,0.6-0.7c3.3-3.3,6.6-6.6,9.9-9.9c1.1-1.1,2.8-0.8,3.2,0.7
		c0.2,0.7-0.1,1.2-0.5,1.7c-0.5,0.5-1,1-1.5,1.5c-3.4,3.4-6.7,6.7-10.1,10.1c-1.1,1.1-2,1.1-3,0c-1.5-1.5-3.1-3.1-4.6-4.6
		c-0.5-0.5-0.8-1.1-0.7-1.8c0.3-1.4,2-1.9,3-0.8c1.1,1.1,2.2,2.2,3.3,3.3C-362.5,285.4-362.4,285.6-362.2,285.9z"/>
</g>
</svg>
