<?xml version="1.0" encoding="utf-8"?>
<!-- Generator: Adobe Illustrator 19.1.1, SVG Export Plug-In . SVG Version: 6.00 Build 0)  -->
<svg version="1.1" id="Calque_1" xmlns="http://www.w3.org/2000/svg" xmlns:xlink="http://www.w3.org/1999/xlink" x="0px" y="0px"
	 viewBox="770 -56 2500 660" style="enable-background:new 770 -56 2500 660;" xml:space="preserve">
<g>
	<path d="M3001,270.2c-1.5,8-3.3,4.2-4.6,0.2c-27.5-90.9-115-157.4-218.6-157.4c-103.4,0-190.6,66.1-218.4,156.5
		c-1.3,4.7-5.1,3.6-5.2,0c-2.2-96.5-76.8-160.1-173.9-159.6c-49.1,0.3-89.2,19.2-104,40c-1.2,1.8-4.2,2.4-4.2-1.8V9.3H2167V335
		c0,48.9-29.9,116.9-100.4,116.9c-64.6,0-95.6-37-95.6-109.8V209.7h165V109.5h-165V9.3h-105.2v260.7c0,6.3-3.9,6.3-6.2,0.3
		c-27.2-91.2-114.1-158.1-216.1-158.1c-68.4,0-127.7,28.6-169.5,75.8c-1.7,1.5-2.9,0.1-2.6-2v-76.3c-177.1,0-216.9,99.8-226.3,161.9
		c-0.8,5.1-5.9,4.8-7-0.3c-26.2-91.8-110.9-159-211.4-159c-42,0-81.3,17.7-114.7,48.8c0,0,0-151.5,0-151.5H806.8l0.2,322.1
		c0.3,121.1,98.4,219.3,219.8,219.3c101.7,0,187.3-69,212.3-162.6c1-2.7,2.8-2.4,2.8,0V539H1347V332.6
		c0-103.2,60.3-119.9,105.8-122.4c3-0.1,3.1,1.2,2,2.8c-23.2,35.2-35.5,76.4-35.5,118.5c0,121.1,100.4,219.3,224.2,219.3
		c101.8,0,188.3-66.4,215.7-157.3c1.6-8,6.4-8,7.1,0c5.5,68,57.7,155.1,190.8,155.1c44.5,0,86-24.7,101.8-42.8
		c4-3.7,8.2-3.7,8.2,3.4V539h105.2V304.6c2.4-44.1,25.1-100.2,86.7-100.2c77.1,0,90.2,50.7,90.2,69.8V539h105.2V393.7
		c0-4.2,4.5-3.6,5-1.2c27.6,90.8,115,157.1,218.6,157.1c103.3,0,187.7-60.5,205.9-155.5l-98.1-0.1c-20.2,44-60.9,74-107.9,74
		c-56,0-103-42.9-117.1-100.9l109.9,0h225.9V539h105.2V332.6c0-118.1,86.1-122.9,131.5-122.9V109.5
		C3057.3,109.5,3012.8,208.1,3001,270.2L3001,270.2z M1020.7,454.9c-68.1,0-123.4-55.1-123.4-123.1s55.3-123.2,123.4-123.2
		s123.4,55.1,123.4,123.2S1088.8,454.9,1020.7,454.9L1020.7,454.9z M1641.2,454.9c-68.1,0-123.4-55.1-123.4-123.1
		s55.3-123.2,123.4-123.2c68.1,0,123.4,55.1,123.4,123.2S1709.3,454.9,1641.2,454.9z M2775.2,280.8l-105.7,0
		c17.8-50.6,61.6-86.4,112.9-86.4c51.3,0,95.1,35.8,112.9,86.4H2775.2L2775.2,280.8z M3168.6,506c-3.8-3.8-8.9-6-14.3-5.9
		c-5.6,0-10.3,1.9-14.2,5.9c-3.9,3.7-6,8.9-5.9,14.2c0,5.6,1.9,10.4,5.8,14.3c3.9,4,8.7,5.9,14.2,5.9c5.6,0,10.4-2,14.3-5.9
		c3.9-3.7,6-8.9,5.9-14.3C3174.5,514.7,3172.5,509.9,3168.6,506L3168.6,506z M3166.6,532.5c-3.4,3.4-7.5,5.1-12.3,5.1
		s-8.9-1.7-12.3-5.1c-3.4-3.4-5-7.5-5-12.3c0-4.8,1.7-8.9,5.1-12.2c3.2-3.3,7.6-5.2,12.2-5.1c4.8,0,8.9,1.7,12.3,5.1
		c3.4,3.4,5.1,7.5,5.1,12.2C3171.7,525,3170,529.1,3166.6,532.5L3166.6,532.5z"/>
	<path d="M3163.3,530.9c-0.1-0.4-0.2-0.8-0.2-1.1c0-0.6-0.1-1.1-0.1-1.6v-1.6c0-1.2-0.5-2.4-1.2-3.4c-0.9-1.2-2.3-2-3.8-2.2
		c1.1-0.1,2.2-0.5,3.2-1.1c1.4-0.9,2.2-2.4,2.2-4.4c0-2.8-1.1-4.6-3.4-5.6c-1.3-0.5-3.3-0.8-6.1-0.8h-7.8v22.1h3.9v-8.7h3.1
		c2,0,3.5,0.2,4.3,0.7c1.4,0.8,2.1,2.5,2.1,5.1v1.8l0.1,0.7c0,0.1,0,0.2,0.1,0.3l0.1,0.2h3.6L3163.3,530.9L3163.3,530.9z
		 M3157.3,519.3c-1.2,0.4-2.5,0.6-3.7,0.5h-3.5v-8h3.3c2.2,0,3.7,0.3,4.7,0.8c1,0.6,1.5,1.6,1.5,3.2
		C3159.6,517.5,3158.8,518.7,3157.3,519.3L3157.3,519.3z"/>
</g>
</svg>
