<?xml version="1.0" encoding="utf-8"?>
<!-- Generator: Adobe Illustrator 19.1.1, SVG Export Plug-In . SVG Version: 6.00 Build 0)  -->
<svg version="1.1" id="Calque_1" xmlns="http://www.w3.org/2000/svg" xmlns:xlink="http://www.w3.org/1999/xlink" x="0px" y="0px"
	 viewBox="0 0 184 42" style="enable-background:new 0 0 184 42;" xml:space="preserve">
<style type="text/css">
	.st0{fill:none;stroke:#000000;stroke-miterlimit:10;}
</style>
<g>
	<path d="M39.2,28V14.1h4.4c1.8,0,3.3,0.6,4.4,1.7c1.1,1.1,1.6,2.5,1.6,4.3V22c0,1.8-0.6,3.2-1.6,4.3c-1.1,1.1-2.6,1.7-4.4,1.7H39.2
		z M41,15.6v10.9h2.5c1.3,0,2.3-0.4,3-1.3c0.7-0.8,1.1-1.9,1.1-3.2v-1.9c0-1.3-0.4-2.4-1.1-3.2c-0.7-0.8-1.7-1.3-3-1.3H41z"/>
	<path d="M56.4,28.2c-1.5,0-2.6-0.5-3.5-1.4c-0.8-0.9-1.2-2.2-1.2-3.7v-0.4c0-1.5,0.4-2.7,1.3-3.7c0.9-1,1.9-1.4,3.1-1.4
		c1.4,0,2.4,0.4,3.1,1.3c0.7,0.9,1,2,1,3.4v1h-6.6l0,0c0,1,0.2,1.9,0.7,2.5c0.5,0.6,1.2,1,2.1,1c0.6,0,1.2-0.1,1.7-0.3
		c0.5-0.2,0.9-0.4,1.2-0.7l0.7,1.2c-0.4,0.4-0.9,0.7-1.5,0.9C57.9,28,57.2,28.2,56.4,28.2z M56.1,18.9c-0.7,0-1.2,0.3-1.6,0.8
		s-0.7,1.1-0.8,1.9l0,0h4.6v-0.2c0-0.7-0.2-1.4-0.6-1.9C57.4,19.2,56.8,18.9,56.1,18.9z"/>
	<path d="M65.6,24.9l0.2,0.7h0.1l0.2-0.7l2.4-7.3h1.9L66.5,28h-1.4l-3.8-10.3h1.9L65.6,24.9z"/>
	<path d="M74,15h-1.9v-1.9H74V15z M74,28h-1.9V17.7H74V28z"/>
	<path d="M78.9,28H77V13.1h1.9V28z"/>
	<path d="M81.3,22.7c0-1.5,0.4-2.8,1.2-3.8c0.8-1,1.9-1.5,3.4-1.5c1.4,0,2.6,0.5,3.4,1.5c0.8,1,1.2,2.2,1.2,3.8v0.2
		c0,1.5-0.4,2.8-1.2,3.8c-0.8,1-1.9,1.5-3.4,1.5c-1.4,0-2.5-0.5-3.4-1.5s-1.2-2.2-1.2-3.8V22.7z M83.2,22.9c0,1.1,0.2,2,0.7,2.7
		c0.5,0.7,1.1,1.1,2,1.1c0.9,0,1.6-0.4,2-1.1c0.5-0.7,0.7-1.6,0.7-2.7v-0.2c0-1.1-0.2-2-0.7-2.7c-0.5-0.7-1.1-1.1-2-1.1
		c-0.9,0-1.6,0.4-2,1.1c-0.5,0.7-0.7,1.6-0.7,2.7V22.9z"/>
	<path d="M92.5,23c0-1.7,0.4-3,1.1-4c0.7-1,1.7-1.5,3-1.5c0.7,0,1.2,0.1,1.7,0.4c0.5,0.3,0.9,0.6,1.2,1.1l0.2-1.3h1.5V28
		c0,1.3-0.4,2.3-1.2,3c-0.8,0.7-1.9,1.1-3.3,1.1c-0.5,0-1-0.1-1.6-0.2c-0.6-0.1-1.1-0.3-1.5-0.6l0.3-1.5c0.4,0.2,0.8,0.3,1.3,0.5
		c0.5,0.1,1,0.2,1.5,0.2c0.9,0,1.6-0.2,2-0.6c0.4-0.4,0.6-1,0.6-1.9v-1.2c-0.3,0.4-0.7,0.8-1.2,1c-0.5,0.2-1,0.3-1.6,0.3
		c-1.3,0-2.2-0.5-2.9-1.4c-0.7-0.9-1.1-2.1-1.1-3.6V23z M94.4,23.2c0,1,0.2,1.9,0.6,2.5c0.4,0.6,1.1,0.9,2,0.9c0.6,0,1-0.1,1.4-0.4
		c0.4-0.3,0.7-0.6,0.9-1.1v-4.7c-0.2-0.4-0.6-0.8-0.9-1C98,19.1,97.5,19,97,19c-0.9,0-1.6,0.4-2,1.1c-0.4,0.7-0.6,1.7-0.6,2.9V23.2z
		"/>
	<path d="M110.9,26.5h6.8V28H109V14.1h1.9V26.5z"/>
	<path d="M119,22.7c0-1.5,0.4-2.8,1.2-3.8c0.8-1,1.9-1.5,3.4-1.5c1.4,0,2.6,0.5,3.4,1.5c0.8,1,1.2,2.2,1.2,3.8v0.2
		c0,1.5-0.4,2.8-1.2,3.8c-0.8,1-1.9,1.5-3.4,1.5c-1.4,0-2.5-0.5-3.4-1.5c-0.8-1-1.2-2.2-1.2-3.8V22.7z M120.9,22.9
		c0,1.1,0.2,2,0.7,2.7c0.5,0.7,1.1,1.1,2,1.1c0.9,0,1.6-0.4,2-1.1c0.5-0.7,0.7-1.6,0.7-2.7v-0.2c0-1.1-0.2-2-0.7-2.7
		c-0.5-0.7-1.1-1.1-2-1.1c-0.9,0-1.6,0.4-2,1.1c-0.5,0.7-0.7,1.6-0.7,2.7V22.9z"/>
	<path d="M130.2,23c0-1.7,0.4-3,1.1-4c0.7-1,1.7-1.5,3-1.5c0.7,0,1.2,0.1,1.7,0.4c0.5,0.3,0.9,0.6,1.2,1.1l0.2-1.3h1.5V28
		c0,1.3-0.4,2.3-1.2,3c-0.8,0.7-1.9,1.1-3.3,1.1c-0.5,0-1-0.1-1.6-0.2c-0.6-0.1-1.1-0.3-1.5-0.6l0.3-1.5c0.4,0.2,0.8,0.3,1.3,0.5
		c0.5,0.1,1,0.2,1.5,0.2c0.9,0,1.6-0.2,2-0.6c0.4-0.4,0.6-1,0.6-1.9v-1.2c-0.3,0.4-0.7,0.8-1.2,1s-1,0.3-1.6,0.3
		c-1.3,0-2.2-0.5-2.9-1.4c-0.7-0.9-1.1-2.1-1.1-3.6V23z M132.1,23.2c0,1,0.2,1.9,0.6,2.5s1.1,0.9,2,0.9c0.6,0,1-0.1,1.4-0.4
		s0.7-0.6,0.9-1.1v-4.7c-0.2-0.4-0.6-0.8-0.9-1c-0.4-0.3-0.9-0.4-1.4-0.4c-0.9,0-1.6,0.4-2,1.1c-0.4,0.7-0.6,1.7-0.6,2.9V23.2z"/>
	<path d="M141.1,22.7c0-1.5,0.4-2.8,1.2-3.8c0.8-1,1.9-1.5,3.4-1.5c1.4,0,2.6,0.5,3.4,1.5c0.8,1,1.2,2.2,1.2,3.8v0.2
		c0,1.5-0.4,2.8-1.2,3.8c-0.8,1-1.9,1.5-3.4,1.5c-1.4,0-2.5-0.5-3.4-1.5c-0.8-1-1.2-2.2-1.2-3.8V22.7z M143,22.9
		c0,1.1,0.2,2,0.7,2.7c0.5,0.7,1.1,1.1,2,1.1c0.9,0,1.6-0.4,2-1.1c0.5-0.7,0.7-1.6,0.7-2.7v-0.2c0-1.1-0.2-2-0.7-2.7
		c-0.5-0.7-1.1-1.1-2-1.1c-0.9,0-1.6,0.4-2,1.1c-0.5,0.7-0.7,1.6-0.7,2.7V22.9z"/>
</g>
<path class="st0" d="M171.8,37H15.7c-5.5,0-9.9-4.5-9.9-9.9v-12c0-5.5,4.5-9.9,9.9-9.9h156.1c5.5,0,9.9,4.5,9.9,9.9v12
	C181.8,32.5,177.3,37,171.8,37z"/>
</svg>
