<?xml version="1.0" encoding="utf-8"?>
<!-- Generator: Adobe Illustrator 19.1.1, SVG Export Plug-In . SVG Version: 6.00 Build 0)  -->
<svg version="1.1" id="Calque_1" xmlns="http://www.w3.org/2000/svg" xmlns:xlink="http://www.w3.org/1999/xlink" x="0px" y="0px"
	 viewBox="42.6 170.4 220 220" style="enable-background:new 42.6 170.4 220 220;" xml:space="preserve">
<style type="text/css">
	.st0{fill:#015294;}
</style>
<path class="st0" d="M152.3,178.2c3,0,6.1-0.7,9.1-0.1c13.4,1.2,26.6,4.9,38.5,11.1c15.4,7.9,28.6,19.8,38.2,34.2
	c9.8,14.6,15.6,31.8,16.9,49.3c-0.2,4.6-0.4,9.3,0.1,13.9c-0.9,13.3-4.3,26.5-10.2,38.5c-6.8,13.9-16.8,26.3-29.1,35.8
	c-15.2,11.9-33.9,19.4-53.2,21.2c-2.9,0.2-5.9,0.8-8.8,0.5c-2-0.1-4,0.5-5.8-0.3c7.2-20.3,14.4-40.5,21.7-60.8
	c7.9-0.1,15.8,0,23.7-0.1c5-0.2,10-3.3,11.7-8.2c6.7-18.8,13.5-37.6,20-56.5c1.1-2.9,1.7-6,0.8-9c-1.2-3.8-4.6-6.5-8.3-7.5
	c-3.2-1-6.6-0.7-10-0.7c-10.2,0-20.3,0-30.4,0c-0.2,0.3-0.5,1-0.7,1.3c-16.4,46.2-32.8,92.4-49.3,138.5
	c-16.9-4.4-32.8-13.2-45.3-25.4c-15.2-14.5-25.7-33.8-29.6-54.5c-1.2-6.2-1.7-12.5-2-18.8c0.3-13.1,2.4-26.3,7.4-38.5
	c12-30.8,39.9-55,72.3-61.9c-16.6,46-32.8,92.1-49.3,138c1.1,0.3,2.2,0.2,3.3,0.2c6,0,12.1,0,18.1,0c0.8,0,0.7-1.2,1.1-1.7
	c7.3-20.5,14.7-41.1,21.9-61.6c0.4-1.3,0.8-2.6,1.4-3.8c3.8,0.1,7.6,0,11.4,0c-7.9,22.3-15.8,44.5-23.9,66.8
	c0.8,0.3,1.7,0.2,2.6,0.3c6.3-0.1,12.7,0,19,0c7.2-20.2,14.4-40.4,21.6-60.6c1.5-4.1,1.7-9-0.8-12.8c-2.1-3.4-6.2-5-10-5.2
	c-5.3-0.1-10.6,0-15.9-0.1C137.6,219.4,145.1,198.9,152.3,178.2z"/>
<path class="st0" d="M194.4,252c0.6-0.7,1.7-0.3,2.6-0.4c2.9,0,5.9,0,8.8,0c-6.8,19.5-14,38.9-20.7,58.4c-3.8,0.3-7.6,0.1-11.4,0.1
	C180.6,290.8,187.4,271.3,194.4,252L194.4,252z"/>
</svg>
