<?xml version="1.0" encoding="utf-8"?>
<!-- Generator: Adobe Illustrator 19.1.1, SVG Export Plug-In . SVG Version: 6.00 Build 0)  -->
<svg version="1.1" id="Calque_1" xmlns="http://www.w3.org/2000/svg" xmlns:xlink="http://www.w3.org/1999/xlink" x="0px" y="0px"
	 viewBox="1704.4 -35.6 631.2 631.2" style="enable-background:new 1704.4 -35.6 631.2 631.2;" xml:space="preserve">
<style type="text/css">
	.st0{fill:#015294;}
</style>
<path class="st0" d="M2019.1-1.1c8.4,0,16.7-1.9,25.1-0.2c36.9,3.3,73.2,13.4,106,30.7c42.4,21.7,78.9,54.7,105.4,94.3
	c27,40.3,43,87.7,46.6,136c-0.6,12.8-1,25.6,0.3,38.4c-2.6,36.7-11.8,73.1-28.2,106.2c-18.7,38.4-46.4,72.4-80.1,98.7
	c-42,32.9-93.5,53.5-146.7,58.4c-8.1,0.6-16.2,2.1-24.3,1.4c-5.4-0.4-10.9,1.4-16.1-0.8c19.9-55.9,39.7-111.7,59.7-167.5
	c21.8-0.4,43.6,0.1,65.4-0.3c13.9-0.5,27.7-9,32.2-22.5c18.4-51.9,37.3-103.7,55.2-155.8c2.9-7.9,4.6-16.6,2.2-24.9
	c-3.2-10.4-12.7-17.8-23-20.6c-8.9-2.8-18.3-1.8-27.5-1.9c-28-0.1-56,0.1-83.9-0.1c-0.5,0.9-1.4,2.8-1.8,3.7
	c-45.3,127.3-90.5,254.6-136,381.7c-46.7-12.1-90.3-36.4-125-70c-41.8-40-70.8-93.2-81.6-150.1c-3.4-17.1-4.6-34.5-5.5-51.8
	c0.8-36.1,6.7-72.4,20.3-106c33.2-84.8,110-151.6,199.2-170.7c-45.7,126.7-90.3,253.8-136,380.5c2.9,0.9,6,0.5,9,0.6
	c16.6-0.1,33.3,0,50,0c2.3,0,2-3.2,3-4.6c20.1-56.6,40.4-113.2,60.5-169.8c1.2-3.5,2.3-7.1,3.9-10.4c10.4,0.2,20.9,0,31.3,0.1
	c-21.9,61.4-43.6,122.8-65.8,184.1c2.3,0.9,4.8,0.6,7.3,0.7c17.5-0.2,35,0.1,52.5-0.1c19.8-55.8,39.8-111.4,59.6-167.1
	c4.2-11.4,4.6-24.9-2.1-35.4c-5.9-9.3-17-13.8-27.7-14.2c-14.6-0.4-29.1,0-43.7-0.2C1978.6,112.5,1999.3,55.8,2019.1-1.1z"/>
<path class="st0" d="M2135.1,202.2c1.7-2,4.8-0.8,7.1-1.1c8.1,0.1,16.2-0.1,24.2,0.1c-18.8,53.7-38.5,107.2-57,161
	c-10.5,0.7-21,0.3-31.5,0.2C2097.1,309.1,2116,255.6,2135.1,202.2L2135.1,202.2z"/>
</svg>
