<?xml version="1.0" encoding="utf-8"?>
<!-- Generator: Adobe Illustrator 19.1.1, SVG Export Plug-In . SVG Version: 6.00 Build 0)  -->
<svg version="1.1" id="Calque_1" xmlns="http://www.w3.org/2000/svg" xmlns:xlink="http://www.w3.org/1999/xlink" x="0px" y="0px"
	 viewBox="0 0 444 442" style="enable-background:new 0 0 444 442;" xml:space="preserve">
<style type="text/css">
	.st0{fill:#2C317D;stroke:#F2F2F2;stroke-width:6;stroke-miterlimit:10;}
	.st1{fill:#FFFFFF;}
</style>
<circle class="st0" cx="221.9" cy="221.7" r="216"/>
<g>
	<path class="st1" d="M197,296.9c-1.3-3.8-2.5-8.6-3.5-14.6c-1-6-1.5-12-1.5-17.9c0-9.2,1.8-17.6,5.5-25c3.7-7.4,8.3-14.4,13.8-20.9
		c5.5-6.5,11.5-12.8,18-18.8c6.5-6,12.5-12.1,18-18.2c5.5-6.1,10.1-12.6,13.8-19.3c3.7-6.7,5.5-14.1,5.5-22.2c0-6.9-1.3-13.1-4-18.4
		c-2.7-5.3-6.3-9.8-10.9-13.4c-4.6-3.6-10-6.3-16-8.1c-6.1-1.8-12.5-2.7-19.3-2.7c-24.4,0-45.6,9.6-63.5,28.8V87.9
		c22.1-13.9,45-20.8,68.7-20.8c11,0,21.3,1.4,31,4.3c9.7,2.9,18.2,7.2,25.5,12.9c7.3,5.7,13,12.8,17.2,21.4
		c4.2,8.5,6.3,18.4,6.3,29.7c0,10.7-1.9,20.2-5.6,28.6c-3.8,8.4-8.5,16.1-14.2,23.1c-5.7,7-11.9,13.5-18.5,19.6
		c-6.6,6.1-12.8,12.1-18.5,18.1c-5.7,6-10.4,12.2-14.2,18.8c-3.8,6.5-5.6,13.7-5.6,21.5c0,6.6,0.8,12.7,2.4,18.1
		c1.6,5.4,3.2,10,4.8,13.8H197z M216.5,387.1c-6.4,0-12-2.3-16.9-6.9c-4.8-4.6-7.2-10.3-7.2-16.9c0-6.8,2.4-12.4,7.2-16.9
		c4.8-4.8,10.4-7.2,16.9-7.2c6.5,0,12.1,2.4,16.9,7.2c4.8,4.5,7.2,10.1,7.2,16.9c0,6.6-2.4,12.3-7.2,16.9
		C228.5,384.8,222.9,387.1,216.5,387.1z"/>
</g>
</svg>
