<?xml version="1.0" encoding="utf-8"?>
<!-- Generator: Adobe Illustrator 19.1.1, SVG Export Plug-In . SVG Version: 6.00 Build 0)  -->
<svg version="1.1" id="Calque_1" xmlns="http://www.w3.org/2000/svg" xmlns:xlink="http://www.w3.org/1999/xlink" x="0px" y="0px"
	 viewBox="0 0 444 442" style="enable-background:new 0 0 444 442;" xml:space="preserve">
<style type="text/css">
	.st0{fill:#2C317D;stroke:#F2F2F2;stroke-width:6;stroke-miterlimit:10;}
	.st1{fill:#FFFFFF;}
</style>
<circle class="st0" cx="221.9" cy="221.7" r="216"/>
<g>
	<path class="st1" d="M53.1,241.1h-4.6v-4.6h-0.1c-1.9,3.5-4.9,5.3-8.9,5.3c-6.9,0-10.3-4.1-10.3-12.3v-17.3h4.6v16.6
		c0,6.1,2.3,9.2,7,9.2c2.3,0,4.1-0.8,5.6-2.5c1.5-1.7,2.2-3.8,2.2-6.5v-16.7h4.6V241.1z"/>
	<path class="st1" d="M86.5,241.1h-4.6v-16.5c0-6.1-2.2-9.2-6.7-9.2c-2.3,0-4.2,0.9-5.8,2.6c-1.5,1.7-2.3,3.9-2.3,6.6v16.5h-4.6
		v-28.9h4.6v4.8h0.1c2.2-3.7,5.4-5.5,9.5-5.5c3.2,0,5.6,1,7.3,3.1c1.7,2,2.5,5,2.5,8.9V241.1z"/>
	<path class="st1" d="M118.5,227.8H98.1c0.1,3.2,0.9,5.7,2.6,7.5c1.7,1.8,3.9,2.6,6.8,2.6c3.3,0,6.3-1.1,9-3.2v4.4
		c-2.5,1.8-5.9,2.8-10.1,2.8c-4.1,0-7.3-1.3-9.6-3.9c-2.3-2.6-3.5-6.3-3.5-11.1c0-4.5,1.3-8.2,3.8-11s5.7-4.3,9.5-4.3
		s6.7,1.2,8.8,3.7s3.1,5.9,3.1,10.2V227.8z M113.7,223.9c0-2.7-0.7-4.8-1.9-6.2c-1.3-1.5-3-2.2-5.3-2.2c-2.2,0-4,0.8-5.6,2.3
		c-1.5,1.6-2.5,3.6-2.8,6.1H113.7z"/>
	<path class="st1" d="M166.1,241.1h-4.6v-4.9h-0.1c-2.1,3.7-5.5,5.6-10,5.6c-3.6,0-6.5-1.3-8.7-3.9c-2.2-2.6-3.3-6.1-3.3-10.6
		c0-4.8,1.2-8.6,3.6-11.5c2.4-2.9,5.6-4.3,9.6-4.3c4,0,6.9,1.6,8.7,4.7h0.1v-17.9h4.6V241.1z M161.4,228v-4.3c0-2.3-0.8-4.3-2.3-5.9
		c-1.5-1.6-3.5-2.4-5.9-2.4c-2.8,0-5.1,1-6.7,3.1c-1.6,2.1-2.4,4.9-2.4,8.6c0,3.3,0.8,6,2.3,7.9c1.6,1.9,3.6,2.9,6.3,2.9
		c2.6,0,4.7-0.9,6.3-2.8S161.4,230.9,161.4,228z"/>
	<path class="st1" d="M198.7,227.8h-20.4c0.1,3.2,0.9,5.7,2.6,7.5c1.7,1.8,3.9,2.6,6.8,2.6c3.3,0,6.3-1.1,9-3.2v4.4
		c-2.5,1.8-5.9,2.8-10.1,2.8c-4.1,0-7.3-1.3-9.6-3.9c-2.3-2.6-3.5-6.3-3.5-11.1c0-4.5,1.3-8.2,3.8-11s5.7-4.3,9.5-4.3
		s6.7,1.2,8.8,3.7s3.1,5.9,3.1,10.2V227.8z M194,223.9c0-2.7-0.7-4.8-1.9-6.2c-1.3-1.5-3-2.2-5.3-2.2c-2.2,0-4,0.8-5.6,2.3
		c-1.5,1.6-2.5,3.6-2.8,6.1H194z"/>
	<path class="st1" d="M246.8,241.1h-4.6v-16.6c0-3.2-0.5-5.5-1.5-7c-1-1.4-2.7-2.1-5-2.1c-2,0-3.7,0.9-5,2.7c-1.4,1.8-2.1,4-2.1,6.5
		v16.5H224v-17.2c0-5.7-2.2-8.5-6.6-8.5c-2,0-3.7,0.9-5,2.6c-1.3,1.7-2,3.9-2,6.7v16.5h-4.6v-28.9h4.6v4.6h0.1
		c2.1-3.5,5.1-5.3,9-5.3c2,0,3.7,0.6,5.2,1.7c1.5,1.1,2.5,2.5,3,4.3c2.1-4,5.4-6,9.6-6c6.4,0,9.6,3.9,9.6,11.8V241.1z"/>
	<path class="st1" d="M276.3,241.1h-4.6v-4.5h-0.1c-2,3.5-5,5.2-8.9,5.2c-2.9,0-5.1-0.8-6.8-2.3c-1.6-1.5-2.4-3.6-2.4-6.1
		c0-5.4,3.2-8.6,9.6-9.4l8.7-1.2c0-4.9-2-7.4-6-7.4c-3.5,0-6.6,1.2-9.4,3.6v-4.7c2.8-1.8,6.1-2.7,9.8-2.7c6.8,0,10.2,3.6,10.2,10.8
		V241.1z M271.7,226.5l-7,1c-2.1,0.3-3.8,0.8-4.9,1.6c-1.1,0.8-1.6,2.1-1.6,4.1c0,1.4,0.5,2.6,1.5,3.5c1,0.9,2.4,1.3,4,1.3
		c2.3,0,4.2-0.8,5.7-2.4s2.2-3.7,2.2-6.1V226.5z"/>
	<path class="st1" d="M309.1,241.1h-4.6v-16.5c0-6.1-2.2-9.2-6.7-9.2c-2.3,0-4.2,0.9-5.8,2.6c-1.5,1.7-2.3,3.9-2.3,6.6v16.5h-4.6
		v-28.9h4.6v4.8h0.1c2.2-3.7,5.4-5.5,9.5-5.5c3.2,0,5.6,1,7.3,3.1c1.7,2,2.5,5,2.5,8.9V241.1z"/>
	<path class="st1" d="M342.5,241.1h-4.6v-4.9h-0.1c-2.1,3.7-5.5,5.6-10,5.6c-3.6,0-6.5-1.3-8.7-3.9c-2.2-2.6-3.3-6.1-3.3-10.6
		c0-4.8,1.2-8.6,3.6-11.5c2.4-2.9,5.6-4.3,9.6-4.3c4,0,6.9,1.6,8.7,4.7h0.1v-17.9h4.6V241.1z M337.9,228v-4.3c0-2.3-0.8-4.3-2.3-5.9
		c-1.5-1.6-3.5-2.4-5.9-2.4c-2.8,0-5.1,1-6.7,3.1s-2.4,4.9-2.4,8.6c0,3.3,0.8,6,2.3,7.9s3.6,2.9,6.3,2.9c2.6,0,4.7-0.9,6.3-2.8
		S337.9,230.9,337.9,228z"/>
	<path class="st1" d="M375.2,227.8h-20.4c0.1,3.2,0.9,5.7,2.6,7.5c1.7,1.8,3.9,2.6,6.8,2.6c3.3,0,6.3-1.1,9-3.2v4.4
		c-2.5,1.8-5.9,2.8-10.1,2.8c-4.1,0-7.3-1.3-9.6-3.9c-2.3-2.6-3.5-6.3-3.5-11.1c0-4.5,1.3-8.2,3.8-11c2.6-2.8,5.7-4.3,9.5-4.3
		s6.7,1.2,8.8,3.7s3.1,5.9,3.1,10.2V227.8z M370.4,223.9c0-2.7-0.7-4.8-1.9-6.2s-3-2.2-5.3-2.2c-2.2,0-4,0.8-5.6,2.3
		c-1.5,1.6-2.5,3.6-2.8,6.1H370.4z"/>
	<path class="st1" d="M402.8,229.9c-0.2-0.5-0.3-1.1-0.5-1.9c-0.1-0.8-0.2-1.6-0.2-2.3c0-1.2,0.2-2.3,0.7-3.3s1.1-1.9,1.8-2.7
		c0.7-0.8,1.5-1.7,2.3-2.4c0.8-0.8,1.6-1.6,2.3-2.4c0.7-0.8,1.3-1.6,1.8-2.5s0.7-1.8,0.7-2.9c0-0.9-0.2-1.7-0.5-2.4
		c-0.3-0.7-0.8-1.3-1.4-1.8c-0.6-0.5-1.3-0.8-2.1-1.1c-0.8-0.2-1.6-0.4-2.5-0.4c-3.2,0-5.9,1.3-8.3,3.8v-5c2.9-1.8,5.9-2.7,9-2.7
		c1.4,0,2.8,0.2,4,0.6s2.4,0.9,3.3,1.7c1,0.7,1.7,1.7,2.2,2.8c0.5,1.1,0.8,2.4,0.8,3.9c0,1.4-0.2,2.6-0.7,3.7
		c-0.5,1.1-1.1,2.1-1.9,3c-0.7,0.9-1.5,1.8-2.4,2.6s-1.7,1.6-2.4,2.4s-1.4,1.6-1.9,2.4s-0.7,1.8-0.7,2.8c0,0.9,0.1,1.7,0.3,2.4
		c0.2,0.7,0.4,1.3,0.6,1.8H402.8z M405.4,241.6c-0.8,0-1.6-0.3-2.2-0.9c-0.6-0.6-0.9-1.3-0.9-2.2c0-0.9,0.3-1.6,0.9-2.2
		c0.6-0.6,1.4-0.9,2.2-0.9c0.8,0,1.6,0.3,2.2,0.9c0.6,0.6,0.9,1.3,0.9,2.2c0,0.9-0.3,1.6-0.9,2.2
		C406.9,241.3,406.2,241.6,405.4,241.6z"/>
</g>
</svg>
